<svg width="417" height="94" xmlns="http://www.w3.org/2000/svg" xmlns:xlink="http://www.w3.org/1999/xlink" xml:space="preserve" overflow="hidden"><defs><clipPath id="clip0"><rect x="0" y="0" width="417" height="94"/></clipPath><clipPath id="clip1"><rect x="0" y="0" width="417" height="94"/></clipPath></defs><g clip-path="url(#clip0)"><g clip-path="url(#clip1)"><path d="M0 0 622.583 0 622.583 466.937 0 466.937Z" fill="#000000" fill-rule="nonzero" fill-opacity="1" transform="matrix(1 0 0 1.00001 -105.434 -185.903)"/><path d="M119.58 208.48 141.61 258.384 147.52 245.019 151.818 235.213 156.117 245.019 162.028 258.384 184.058 208.48 172.245 208.48 162.036 231.585 151.826 208.48 141.618 231.585 131.409 208.48ZM197.318 208.48 197.318 258.384 231.639 258.384 231.639 248.784 208.4 248.784 208.4 238.373 227.743 238.373 227.743 228.769 208.4 228.769 208.4 218.089 231.639 218.089 231.639 208.485ZM247.72 208.48 247.72 258.384 271.227 258.384C279.556 258.384 286.339 251.936 286.339 243.07 286.339 237.898 283.989 233.533 280.429 230.78 281.839 228.563 282.645 225.876 282.645 222.921 282.645 214.525 276.264 208.48 268.473 208.48ZM301.825 208.48 301.825 258.384 312.908 258.384 312.908 237.294 334.736 237.294 334.736 258.384 345.819 258.384 345.819 208.48 334.736 208.48 334.736 227.693 312.908 227.693 312.908 208.483ZM427.582 208.48 427.582 258.384 438.664 258.384 438.664 229.906 474.194 258.384 474.194 208.48 463.111 208.48 463.111 236.959ZM491.92 208.48 491.92 258.384 503.002 258.384 503.002 208.48ZM386.768 208.548 380.454 219.832 359.028 258.452 372.327 258.452 387.104 231.787 401.947 258.452 414.44 258.452 393.35 220.503ZM258.123 218.085 268.466 218.085C270.548 218.085 272.294 220.638 272.294 222.922 272.294 225.138 270.548 227.69 268.466 227.69L258.123 227.69ZM258.123 237.295 271.219 237.295C273.839 237.295 275.921 240.317 275.921 243.071 275.921 245.825 273.839 248.78 271.219 248.78L258.123 248.78Z" fill="#F2CD00" fill-rule="nonzero" fill-opacity="1" transform="matrix(1 0 0 1.00001 -105.434 -185.903)"/></g></g></svg>