<svg width="416" height="86" xmlns="http://www.w3.org/2000/svg" xmlns:xlink="http://www.w3.org/1999/xlink" xml:space="preserve" overflow="hidden"><g><g><path d="M155.488 244.039 161.375 257.351 183.317 207.647 171.543 207.647 161.374 230.659 151.206 207.647 141.038 230.659 130.869 207.647 119.095 207.647 141.038 257.351 146.924 244.039 151.206 234.272Z" fill="#000000" fill-rule="nonzero" fill-opacity="1" transform="matrix(1.00462 0 0 1 -104.5 -192.714)"/><path d="M230.71 257.349 230.71 247.783 207.564 247.783 207.564 237.414 226.83 237.414 226.83 227.848 207.564 227.848 207.564 217.211 230.71 217.211 230.71 207.645 196.526 207.645 196.526 257.349Z" fill="#000000" fill-rule="nonzero" fill-opacity="1" transform="matrix(1.00462 0 0 1 -104.5 -192.714)"/><path d="M279.306 229.856C280.711 227.649 281.514 224.973 281.514 222.03 281.514 213.668 275.158 207.647 267.399 207.647L246.728 207.647 246.728 257.351 270.141 257.351C278.436 257.351 285.193 250.929 285.193 242.099 285.193 236.948 282.852 232.6 279.306 229.857ZM257.097 247.784 257.097 236.345 270.142 236.345C272.751 236.345 274.824 239.355 274.824 242.098 274.824 244.841 272.751 247.784 270.142 247.784ZM257.097 226.779 257.097 217.213 267.399 217.213C269.473 217.213 271.212 219.755 271.212 222.03 271.212 224.237 269.473 226.779 267.399 226.779Z" fill="#000000" fill-rule="nonzero" fill-opacity="1" transform="matrix(1.00462 0 0 1 -104.5 -192.714)"/><path d="M344.433 257.349 344.433 207.645 333.395 207.645 333.395 226.777 311.654 226.777 311.654 207.645 300.616 207.645 300.616 257.349 311.654 257.349 311.654 236.343 333.395 236.343 333.395 257.349Z" fill="#000000" fill-rule="nonzero" fill-opacity="1" transform="matrix(1.00462 0 0 1 -104.5 -192.714)"/><path d="M400.344 257.421 412.787 257.421 391.782 219.625 385.226 207.717 378.938 218.956 357.598 257.421 370.843 257.421 385.561 230.863Z" fill="#000000" fill-rule="nonzero" fill-opacity="1" transform="matrix(1.00462 0 0 1 -104.5 -192.714)"/><path d="M472.296 257.349 472.296 207.645 461.258 207.645 461.258 236.009 425.87 207.645 425.87 257.349 436.908 257.349 436.908 228.984Z" fill="#000000" fill-rule="nonzero" fill-opacity="1" transform="matrix(1.00462 0 0 1 -104.5 -192.714)"/><path d="M489.948 207.645 489.948 257.349 500.986 257.349 500.986 207.645Z" fill="#000000" fill-rule="nonzero" fill-opacity="1" transform="matrix(1.00462 0 0 1 -104.5 -192.714)"/></g></g></svg>