<svg width="417" height="96" xmlns="http://www.w3.org/2000/svg" xmlns:xlink="http://www.w3.org/1999/xlink" xml:space="preserve" overflow="hidden"><defs><clipPath id="clip0"><rect x="0" y="0" width="417" height="96"/></clipPath><clipPath id="clip1"><rect x="0" y="0" width="417" height="96"/></clipPath><clipPath id="clip2"><rect x="0" y="0" width="417" height="95"/></clipPath><clipPath id="clip3"><rect x="0" y="0" width="418" height="95"/></clipPath></defs><g clip-path="url(#clip0)"><g clip-path="url(#clip1)"><g clip-path="url(#clip2)"><g clip-path="url(#clip3)"><path d="M0 0 623.225 0 623.225 467.419 0 467.419Z" fill="#F2CD00" fill-rule="nonzero" fill-opacity="1" transform="matrix(1 0 0 1.00071 -105.437 -184.298)"/><path d="M156.275 245.273 162.192 258.653 184.244 208.698 172.411 208.698 162.191 231.826 151.971 208.698 141.751 231.826 131.531 208.698 119.698 208.698 141.751 258.653 147.668 245.273 151.971 235.457Z" fill="#000000" fill-rule="nonzero" fill-opacity="1" transform="matrix(1 0 0 1.00071 -105.437 -184.298)"/><path d="M231.878 258.651 231.878 249.036 208.614 249.036 208.614 238.615 227.978 238.615 227.978 229.001 208.614 229.001 208.614 218.31 231.878 218.31 231.878 208.696 197.52 208.696 197.52 258.651Z" fill="#000000" fill-rule="nonzero" fill-opacity="1" transform="matrix(1 0 0 1.00071 -105.437 -184.298)"/><path d="M280.719 231.019C282.131 228.801 282.938 226.111 282.938 223.153 282.938 214.749 276.55 208.698 268.752 208.698L247.976 208.698 247.976 258.653 271.508 258.653C279.845 258.653 286.636 252.199 286.636 243.324 286.636 238.147 284.283 233.776 280.719 231.02ZM258.397 249.038 258.397 237.541 271.508 237.541C274.13 237.541 276.215 240.566 276.215 243.323 276.215 246.079 274.13 249.038 271.508 249.038ZM258.397 227.926 258.397 218.312 268.752 218.312C270.836 218.312 272.584 220.867 272.584 223.153 272.584 225.372 270.836 227.927 268.752 227.927Z" fill="#000000" fill-rule="nonzero" fill-opacity="1" transform="matrix(1 0 0 1.00071 -105.437 -184.298)"/><path d="M346.176 258.651 346.176 208.695 335.082 208.695 335.082 227.925 313.231 227.925 313.231 208.695 302.137 208.695 302.137 258.651 313.231 258.651 313.231 237.539 335.082 237.539 335.082 258.651Z" fill="#000000" fill-rule="nonzero" fill-opacity="1" transform="matrix(1 0 0 1.00071 -105.437 -184.298)"/><path d="M402.37 258.724 414.876 258.724 393.764 220.736 387.175 208.768 380.855 220.064 359.407 258.724 372.72 258.724 387.512 232.032Z" fill="#000000" fill-rule="nonzero" fill-opacity="1" transform="matrix(1 0 0 1.00071 -105.437 -184.298)"/><path d="M474.686 258.651 474.686 208.695 463.592 208.695 463.592 237.203 428.025 208.695 428.025 258.651 439.119 258.651 439.119 230.143Z" fill="#000000" fill-rule="nonzero" fill-opacity="1" transform="matrix(1 0 0 1.00071 -105.437 -184.298)"/><path d="M492.427 208.695 492.427 258.651 503.521 258.651 503.521 208.695Z" fill="#000000" fill-rule="nonzero" fill-opacity="1" transform="matrix(1 0 0 1.00071 -105.437 -184.298)"/></g></g></g></g></svg>