<?xml version="1.0" encoding="UTF-8" standalone="no"?>
<svg
   xmlns:dc="http://purl.org/dc/elements/1.1/"
   xmlns:cc="http://creativecommons.org/ns#"
   xmlns:rdf="http://www.w3.org/1999/02/22-rdf-syntax-ns#"
   xmlns:svg="http://www.w3.org/2000/svg"
   xmlns="http://www.w3.org/2000/svg"
   id="svg13"
   xml:space="preserve"
   viewBox="186 332 652 104"
   height="104"
   width="652"
   version="1.1"><metadata
     id="metadata17"><rdf:RDF><cc:Work
         rdf:about=""><dc:format>image/svg+xml</dc:format><dc:type
           rdf:resource="http://purl.org/dc/dcmitype/StillImage" /></cc:Work></rdf:RDF></metadata><desc
     id="desc2">Created with Fabric.js 5.3.0</desc><defs
     id="defs4" /><g
     id="backgroundElement"
     transform="translate(512.5,384.5)"><path
       id="rect6"
       d="M -512,-384 H 512 V 384 H -512 Z"
       style="opacity:1;fill:#ffffff;fill-opacity:0;fill-rule:nonzero;stroke:none;stroke-width:1;stroke-linecap:butt;stroke-linejoin:miter;stroke-miterlimit:4;stroke-dasharray:none;stroke-dashoffset:0" /></g><g
     id="g11"
     transform="translate(512,384)"><path
       id="path9"
       d="m 196.68,342.9 36.234,82.08 9.7207,-21.982 7.0703,-16.129 7.0703,16.129 9.7227,21.982 36.234,-82.08 h -19.43 L 266.511,380.902 249.718,342.9 232.927,380.902 216.136,342.9 Z m 127.86,0 v 82.08 h 56.451 v -15.79 h -38.223 v -17.123 h 31.814 V 376.27 h -31.814 v -17.566 h 38.223 v -15.797 z m 82.9,0 v 82.08 h 38.664 c 13.698,0 24.855,-10.605 24.855,-25.188 0,-8.5063 -3.8658,-15.686 -9.7207,-20.215 2.3199,-3.6455 3.6445,-8.0651 3.6445,-12.926 0,-13.809 -10.494,-23.752 -23.309,-23.752 z m 88.99,0 v 82.08 h 18.229 v -34.688 h 35.902 V 424.98 H 568.79 V 342.9 h -18.23 v 31.6 h -35.902 v -31.596 z m 206.84,0 v 82.08 h 18.227 v -46.84 l 58.439,46.84 V 342.9 h -18.229 v 46.84 z m 105.82,0 v 82.08 h 18.227 V 342.9 Z m -172.95,0.11133 -10.385,18.559 -35.24,63.521 h 21.873 l 24.305,-43.857 24.414,43.857 h 20.547 l -34.688,-62.416 z m -211.59,15.686 h 17.012 c 3.4246,0 6.2969,4.1991 6.2969,7.9551 0,3.6455 -2.8723,7.8438 -6.2969,7.8438 H 424.55 Z m 0,31.596 h 21.541 c 4.3084,0 7.7324,4.9707 7.7324,9.5 0,4.5293 -3.424,9.3906 -7.7324,9.3906 H 424.55 Z"
       transform="translate(-512,-384)"
       style="opacity:1;fill:#f2cd00;fill-rule:nonzero;stroke:none;stroke-width:1;stroke-linecap:butt;stroke-linejoin:miter;stroke-miterlimit:4;stroke-dasharray:none;stroke-dashoffset:0" /></g></svg>