<?xml version="1.0" encoding="UTF-8" standalone="no"?>
<svg
   xmlns:dc="http://purl.org/dc/elements/1.1/"
   xmlns:cc="http://creativecommons.org/ns#"
   xmlns:rdf="http://www.w3.org/1999/02/22-rdf-syntax-ns#"
   xmlns:svg="http://www.w3.org/2000/svg"
   xmlns="http://www.w3.org/2000/svg"
   id="svg10"
   xml:space="preserve"
   viewBox="186 332 652 104"
   y="0px"
   x="0px"
   version="1.1"><metadata
     id="metadata16"><rdf:RDF><cc:Work
         rdf:about=""><dc:format>image/svg+xml</dc:format><dc:type
           rdf:resource="http://purl.org/dc/dcmitype/StillImage" /></cc:Work></rdf:RDF></metadata><defs
     id="defs14" /><g
     style="stroke-width:0;stroke-miterlimit:2"
     transform="translate(5e-6,4e-6)"
     stroke-miterlimit="2"
     id="logo-group"><path
       d="m 256.77,403 9.7214,21.984 36.234,-82.08 h -19.443 l -16.792,38.002 -16.792,-38.002 -16.792,38.002 -16.792,-38.002 h -19.443 l 36.235,82.08 9.7214,-21.984 7.0701,-16.129 z"
       style="font-variant-ligatures:normal"
       id="path282461" /><path
       d="M 380.99,424.98 V 409.183 H 342.767 V 392.06 h 31.816 v -15.797 h -31.816 v -17.565 h 38.223 v -15.797 h -56.451 v 82.08 z"
       style="font-variant-ligatures:normal"
       id="path282463" /><path
       d="m 461.24,379.58 c 2.3199,-3.6455 3.6456,-8.0644 3.6456,-12.925 0,-13.809 -10.495,-23.751 -23.309,-23.751 h -34.136 v 82.08 h 38.665 c 13.698,0 24.856,-10.605 24.856,-25.187 0,-8.5063 -3.8665,-15.687 -9.7214,-20.216 z m -36.676,29.606 v -18.891 h 21.542 c 4.3084,0 7.733,4.9712 7.733,9.5005 0,4.5293 -3.4246,9.39 -7.733,9.39 z m 0,-34.688 v -15.797 h 17.013 c 3.4246,0 6.2968,4.1979 6.2968,7.9539 0,3.6455 -2.8722,7.8434 -6.2968,7.8434 z"
       style="font-variant-ligatures:normal"
       id="path282465" /><path
       d="M 568.79,424.98 V 342.9 h -18.228 v 31.595 H 514.659 V 342.9 h -18.228 v 82.08 h 18.228 v -34.688 h 35.903 v 34.688 z"
       style="font-variant-ligatures:normal"
       id="path282467" /><path
       d="m 661.12,425.1 h 20.548 L 646.98,362.684 636.154,343.02 625.77,361.579 590.53,425.1 h 21.873 l 24.304,-43.857 z"
       style="font-variant-ligatures:normal"
       id="path282469" /><path
       d="M 779.94,424.98 V 342.9 h -18.228 v 46.84 L 703.273,342.9 v 82.08 h 18.228 v -46.84 z"
       style="font-variant-ligatures:normal"
       id="path282471" /><path
       d="m 809.09,342.9 v 82.08 h 18.228 V 342.9 Z"
       style="font-variant-ligatures:normal"
       id="path282473" /></g></svg>