<?xml version="1.0" encoding="UTF-8" standalone="no"?>
<svg
   xmlns:dc="http://purl.org/dc/elements/1.1/"
   xmlns:cc="http://creativecommons.org/ns#"
   xmlns:rdf="http://www.w3.org/1999/02/22-rdf-syntax-ns#"
   xmlns:svg="http://www.w3.org/2000/svg"
   xmlns="http://www.w3.org/2000/svg"
   id="svg4"
   xml:space="preserve"
   enable-background="new 0 0 200 200"
   viewBox="0 0 200 200"
   y="0px"
   x="0px"
   version="1.1"><metadata
     id="metadata10"><rdf:RDF><cc:Work
         rdf:about=""><dc:format>image/svg+xml</dc:format><dc:type
           rdf:resource="http://purl.org/dc/dcmitype/StillImage" /></cc:Work></rdf:RDF></metadata><defs
     id="defs8" /><path
     id="path2"
     d="m75.34 40c-2.0657 0.0035-4.5718 0.01971-5.5684 0.03517-0.99662 0.01546-2.4661 0.04728-3.2656 0.07031-0.79924 0.0234-1.8774 0.0578-2.3965 0.07813-0.51908 0.0204-1.4533 0.0624-2.0762 0.09375-0.6229 0.03099-1.5244 0.08233-2.0019 0.11328-0.47756 0.03134-1.1821 0.08194-1.5664 0.11328-0.38393 0.03134-0.96116 0.0839-1.2832 0.11524-0.32164 0.03134-0.94992 0.09987-1.3965 0.15234-0.44622 0.05286-1.0834 0.13773-1.4141 0.18945-0.33108 0.05132-0.78069 0.12802-1 0.16992-0.21971 0.04192-0.60239 0.12754-0.85156 0.18945-0.24916 0.06156-0.58976 0.15538-0.75586 0.20899-0.1661 0.0532-0.4578 0.17156-0.64844 0.26367-0.28011 0.13552-0.39316 0.21701-0.58984 0.42578-0.13401 0.14195-0.37143 0.4519-0.52734 0.6875-0.15628 0.23594-0.38638 0.62432-0.51172 0.86328-0.12496 0.23858-0.32735 0.6722-0.45117 0.96289-0.12344 0.29069-0.31434 0.7749-0.42382 1.0762-0.10986 0.30088-0.29218 0.8435-0.4043 1.207-0.1125 0.36316-0.30542 1.0518-0.42773 1.5293-0.1227 0.47756-0.28267 1.1475-0.35742 1.4902-0.07513 0.3424-0.19623 0.92815-0.26758 1.3008-0.07135 0.37299-0.18803 1.0269-0.25976 1.4531-0.07173 0.42659-0.18924 1.1923-0.26172 1.7012-0.07248 0.50851-0.17409 1.2898-0.22656 1.7363-0.05251 0.44621-0.13811 1.2531-0.18945 1.793-0.05174 0.53984-0.11906 1.3137-0.15039 1.7187-0.03099 0.40469-0.08232 1.1695-0.11328 1.6992-0.03134 0.52927-0.07942 1.4288-0.10547 2-0.02716 0.60515-0.04492 2.1644-0.04492 3.7383 0.000377 1.5689 0.01971 3.1093 0.04687 3.6797 0.02528 0.53984 0.07219 1.3904 0.10352 1.8887 0.03169 0.49832 0.08933 1.3048 0.13086 1.793 0.04116 0.48812 0.1194 1.2764 0.17187 1.7539 0.05244 0.47756 0.15251 1.286 0.22461 1.7949 0.07211 0.50851 0.1908 1.2685 0.26367 1.6895 0.07248 0.42131 0.19971 1.0842 0.28125 1.4727 0.08154 0.38884 0.19906 0.92117 0.26172 1.1836 0.06268 0.26237 0.19115 0.7572 0.28515 1.0996 0.094 0.34278 0.26617 0.90941 0.38282 1.2598 0.11665 0.35033 0.31248 0.89168 0.43554 1.2031 0.12345 0.31145 0.36818 0.85599 0.54297 1.209 0.17479 0.35297 0.43915 0.82823 0.58789 1.0566 0.14912 0.2284 0.37562 0.55069 0.50586 0.7168 0.13025 0.1661 0.39543 0.45697 0.58984 0.64648 0.19442 0.18914 0.44931 0.40332 0.56445 0.47656 0.11514 0.07362 0.31911 0.18166 0.45312 0.23828 0.13402 0.05662 0.38816 0.15211 0.56446 0.21289 0.1763 0.06038 0.64591 0.19418 1.0449 0.29687 0.39941 0.10268 1.1479 0.27037 1.6621 0.37305 0.51455 0.10268 1.4018 0.26342 1.9727 0.35742 0.57118 0.09362 1.5236 0.23965 2.1152 0.32421 0.59194 0.08456 1.7465 0.23716 2.5664 0.33985 0.82035 0.10231 2.0258 0.24587 2.6797 0.31836 0.65423 0.07286 1.6904 0.18343 2.3027 0.2461 0.61271 0.06268 1.7435 0.1736 2.5117 0.24609 0.76827 0.07286 2.0847 0.19119 2.9258 0.26368 0.84112 0.07248 2.2852 0.1908 3.209 0.26367 0.92376 0.07323 2.6396 0.20052 3.8125 0.2832 1.1733 0.08305 2.6591 0.18466 3.3027 0.22656 0.64366 0.04227 2.0204 0.12754 3.0586 0.18945 1.0382 0.06156 2.6773 0.15456 3.6426 0.20703 0.96565 0.05209 2.4514 0.1284 3.3027 0.16992 0.85131 0.04151 2.33 0.11082 3.2852 0.15234 0.95512 0.04116 2.3992 0.0999 3.209 0.13086 0.80975 0.03134 1.9643 0.07457 2.5664 0.0957 0.60214 0.02075 1.6313 0.05543 2.2852 0.07617 0.65423 0.02075 1.8434 0.05509 2.6426 0.07617 0.79958 0.02117 2.1923 0.05418 3.0957 0.07422 0.90339 0.01999 3.103 0.05592 4.8887 0.08008 1.9638 0.02639 4.8418 0.03343 7.2852 0.0195 2.2217-0.01323 4.7202-0.04011 5.5508-0.06052 0.83053-0.02075 2.0523-0.05467 2.7168-0.07617 0.66441-0.02152 1.7772-0.06476 2.4726-0.09571 0.69576-0.03057 1.579-0.0726 1.9629-0.09375 0.38431-0.02117 1.0818-0.06476 1.5488-0.0957 0.46736-0.03057 1.1719-0.08037 1.5664-0.11133 0.3945-0.03092 0.89547-0.07336 1.1133-0.09375 0.21821-0.02041 0.74448-0.07259 1.1699-0.11524 0.42584-0.04269 1.114-0.11977 1.5293-0.17187 0.41527-0.05174 0.98548-0.12802 1.2656-0.16993 0.28049-0.04192 0.65378-0.10185 0.83008-0.13281 0.17667-0.03134 0.58461-0.10763 0.90625-0.16992 0.32202-0.06191 0.84828-0.18062 1.1699-0.26368 0.32202-0.08305 0.7646-0.21154 0.98242-0.28515 0.21821-0.07362 0.55109-0.2062 0.74024-0.29492 0.18951-0.0891 0.44453-0.23064 0.56835-0.31446 0.12345-0.08419 0.27926-0.21551 0.34571-0.29102 0.0664-0.0755 0.27003-0.36106 0.45313-0.63476 0.18309-0.27407 0.46531-0.72164 0.625-0.99609 0.15969-0.27483 0.43874-0.79571 0.62109-1.1563 0.18234-0.36014 0.43408-0.89091 0.56055-1.1797 0.12609-0.28918 0.29408-0.67833 0.37109-0.86523 0.0766-0.18687 0.23737-0.60414 0.35742-0.92578 0.11967-0.32202 0.33752-0.95026 0.48437-1.3965 0.14648-0.44622 0.35126-1.1095 0.45508-1.4727 0.10382-0.36354 0.26538-0.95712 0.35938-1.3203 0.0944-0.36354 0.24697-1.0008 0.33984-1.416 0.0932-0.41526 0.2307-1.0618 0.30469-1.4355 0.0744-0.37374 0.211-1.1203 0.30273-1.6602 0.0921-0.53984 0.22597-1.4141 0.29883-1.9434 0.0725-0.52965 0.16709-1.2689 0.20898-1.6426 0.0423-0.37374 0.11083-1.046 0.15235-1.4922 0.0412-0.44622 0.10148-1.1858 0.13281-1.6426 0.0314-0.45678 0.0738-1.127 0.0957-1.4902 0.0223-0.36354 0.0508-1.6999 0.0625-2.9688 0.014-1.4946 0.005-2.6976-0.0235-3.416-0.0245-0.61007-0.0691-1.4827-0.0996-1.9395-0.0306-0.45679-0.0733-1.027-0.0937-1.2656-0.0203-0.23897-0.062-0.68855-0.0937-1s-0.0929-0.83769-0.13477-1.1699c-0.0416-0.33221-0.11783-0.8931-0.16992-1.2461-0.0517-0.35297-0.13698-0.88859-0.18945-1.1895-0.0529-0.30125-0.1638-0.87853-0.2461-1.2832-0.0823-0.40507-0.24139-1.1006-0.35351-1.5469-0.11174-0.4466-0.28965-1.1001-0.39648-1.4531-0.10722-0.35297-0.27163-0.85586-0.36524-1.1152-0.0936-0.25973-0.24414-0.65064-0.33399-0.8711-0.0898-0.2201-0.25141-0.59533-0.35937-0.83203-0.10759-0.23633-0.29849-0.61534-0.42383-0.84375-0.12495-0.2284-0.34974-0.60363-0.5-0.83203-0.15025-0.2284-0.3869-0.55679-0.52734-0.73047-0.14044-0.17404-0.38271-0.44287-0.53711-0.59765-0.15441-0.1544-0.41347-0.37958-0.57617-0.5-0.16271-0.1208-0.42379-0.27258-0.58008-0.33789-0.15667-0.06532-0.48709-0.1767-0.73438-0.24805-0.24727-0.07098-0.77181-0.19587-1.1641-0.2793-0.39186-0.08344-1.0605-0.21072-1.4863-0.2832-0.42545-0.07248-1.2413-0.20173-1.8125-0.28516-0.5708-0.08343-1.5816-0.21967-2.2461-0.30273-0.66443-0.08267-1.7516-0.21035-2.416-0.28321-0.66443-0.07286-1.5383-0.1655-1.9434-0.20703-0.40469-0.04192-1.1859-0.1182-1.7363-0.16992-0.55004-0.05174-1.3752-0.12997-1.832-0.17188-0.4568-0.04192-1.646-0.1435-2.6426-0.22656-0.99661-0.08305-2.6011-0.20877-3.5664-0.28125-0.96531-0.07248-2.1221-0.15736-2.5684-0.18945-0.44622-0.03169-1.4407-0.10063-2.209-0.15234-0.76827-0.05132-2.0827-0.1354-2.9238-0.1875-0.84072-0.05174-2.1066-0.12878-2.8125-0.16993-0.70593-0.04151-1.7604-0.1011-2.3418-0.13281-0.58137-0.0321-1.3626-0.07532-1.7363-0.09571-0.37374-0.0204-1.1802-0.06282-1.793-0.09375-0.61234-0.03092-2.0148-0.09868-3.1152-0.15039-1.1004-0.05209-2.6025-0.11906-3.3398-0.15039-0.73689-0.03134-1.9864-0.08233-2.7754-0.11328-0.78898-0.03134-2.1658-0.08391-3.0586-0.11524-0.8928-0.03169-2.4132-0.0827-3.3789-0.11328-0.96531-0.03092-2.7481-0.08038-3.9629-0.11133-1.2145-0.03092-3.0829-0.07381-4.1523-0.09571-1.0691-0.02152-3.1598-0.05613-4.6445-0.07617-1.4844-0.01999-4.3893-0.03433-6.4551-0.03127zm-13.76 9.7246c0.26992 0.0091 0.71045 0.04088 0.97852 0.07032 0.26842 0.02946 0.69348 0.09552 0.94531 0.14649 0.25218 0.05098 0.66459 0.15212 0.91602 0.22461 0.25142 0.0721 0.65659 0.20962 0.90234 0.30664 0.24576 0.09702 0.65123 0.27971 0.9004 0.40429 0.24916 0.12496 0.63178 0.33675 0.84961 0.47266 0.2182 0.13591 0.52415 0.34145 0.67969 0.45508 0.15592 0.11401 0.43744 0.33962 0.62696 0.50195 0.18951 0.16195 0.51787 0.47444 0.72851 0.69531 0.21103 0.22085 0.52557 0.59083 0.69922 0.82227 0.17366 0.23142 0.41277 0.58185 0.53321 0.7793 0.12005 0.19706 0.32558 0.57968 0.45507 0.84961 0.1295 0.26992 0.29755 0.67047 0.37305 0.88867 0.07588 0.21782 0.18726 0.59923 0.24805 0.84766 0.0608 0.2484 0.13991 0.63803 0.17578 0.86718 0.0491 0.31183 0.06476 0.63585 0.06254 1.2852-0.0021 0.75958-0.01428 0.93693-0.0996 1.416-0.05362 0.30088-0.1588 0.75528-0.23242 1.0098-0.07362 0.25482-0.21113 0.65341-0.30664 0.88672-0.09513 0.2333-0.26729 0.60409-0.38281 0.82227-0.11589 0.21782-0.31948 0.56255-0.45312 0.76563-0.13364 0.20348-0.38084 0.54094-0.54883 0.75195-0.168 0.21066-0.49429 0.57124-0.72461 0.80078-0.23028 0.22953-0.56161 0.53421-0.73828 0.67578-0.1763 0.14195-0.53324 0.39936-0.79297 0.57227-0.25935 0.1729-0.61374 0.39232-0.78516 0.48633-0.17177 0.094-0.48472 0.24987-0.69727 0.34765-0.21254 0.0974-0.53972 0.23484-0.72656 0.30469-0.18687 0.06984-0.54381 0.18534-0.79297 0.25782-0.24916 0.07211-0.66409 0.17288-0.92383 0.22461-0.25935 0.05174-0.72355 0.12064-1.0293 0.15234-0.30579 0.0321-0.82271 0.05857-1.1504 0.05857s-0.78331-0.0179-1.0117-0.03907c-0.2284-0.02075-0.62699-0.07378-0.88672-0.11719-0.25935-0.04304-0.65998-0.12628-0.89063-0.18555-0.23066-0.05926-0.58059-0.16245-0.77538-0.22852-0.1948-0.06609-0.47185-0.16724-0.61719-0.22461-0.14534-0.05773-0.43494-0.1843-0.64258-0.2832-0.20763-0.09891-0.59726-0.31183-0.86719-0.47266-0.271-0.163-0.646-0.409-0.833-0.549-0.187-0.139-0.507-0.398-0.711-0.576-0.204-0.177-0.512-0.477-0.685-0.666-0.173-0.188-0.403-0.453-0.512-0.588s-0.334-0.448-0.498-0.697c-0.165-0.249-0.423-0.708-0.576-1.02-0.15251-0.31145-0.34707-0.76954-0.43164-1.0176-0.08494-0.24803-0.18812-0.58013-0.22851-0.73828-0.04039-0.15818-0.11019-0.50662-0.15625-0.77539-0.06984-0.40621-0.08405-0.63965-0.08594-1.377-0.0021-0.68177 0.01358-0.98613 0.06644-1.3184 0.0374-0.23822 0.12427-0.65511 0.19336-0.92578 0.06943-0.27068 0.19631-0.67813 0.28125-0.9043 0.08532-0.22651 0.26031-0.62308 0.38867-0.88281 0.12835-0.25935 0.37972-0.69459 0.56055-0.9668 0.18082-0.27181 0.4655-0.65646 0.63086-0.85352 0.16535-0.19744 0.50484-0.55491 0.75586-0.79688 0.25105-0.24199 0.65203-0.58666 0.89062-0.76562 0.23859-0.17932 0.61677-0.43755 0.83984-0.57422 0.22312-0.13666 0.60131-0.34713 0.8418-0.4668 0.2401-0.11968 0.63253-0.29588 0.87109-0.39063 0.23897-0.09513 0.63996-0.23062 0.89063-0.30273 0.25029-0.07211 0.65627-0.17484 0.90429-0.22656 0.24765-0.05174 0.6135-0.11339 0.81055-0.13867 0.19744-0.02528 0.57073-0.05912 0.83008-0.07421 0.25973-0.01511 0.693-0.01915 0.96289-0.0097zm75.957 2.6211c0.0416-0.0028 0.36578 0.01128 0.71875 0.03127 0.35298 0.0204 0.83563 0.06323 1.0742 0.09571 0.23897 0.03245 0.65586 0.10794 0.92578 0.16796 0.26993 0.06003 0.69418 0.1706 0.94336 0.2461 0.24916 0.0755 0.66643 0.22318 0.92578 0.32813 0.25973 0.10495 0.63713 0.27578 0.83984 0.37695 0.20273 0.10117 0.55071 0.29169 0.77344 0.42382 0.22274 0.13251 0.54092 0.3385 0.70703 0.45704 0.16611 0.11892 0.46348 0.34535 0.66016 0.5039 0.19669 0.15856 0.54752 0.47842 0.77929 0.71094 0.23142 0.23217 0.55975 0.5932 0.72852 0.80273 0.16874 0.20952 0.42213 0.55582 0.56446 0.76758 0.14232 0.21216 0.35001 0.55606 0.46289 0.76367 0.11249 0.20763 0.28459 0.55561 0.38086 0.77344 0.0963 0.21821 0.22766 0.54946 0.29296 0.73633 0.0649 0.18687 0.16849 0.53447 0.22852 0.77344 0.06 0.23859 0.1343 0.58657 0.16602 0.77344 0.0313 0.18687 0.0774 0.56911 0.10156 0.84961 0.0257 0.29522 0.0351 0.7329 0.0214 1.0391-0.0128 0.29068-0.0426 0.67294-0.0644 0.84961-0.0223 0.1763-0.0839 0.53128-0.13672 0.79101-0.0529 0.25935-0.17611 0.71827-0.27539 1.0195-0.0993 0.30088-0.26689 0.73689-0.3711 0.9668-0.10381 0.2299-0.26865 0.55877-0.36718 0.73242-0.0985 0.17366-0.25561 0.43518-0.34961 0.58203-0.0944 0.14686-0.29386 0.42951-0.44336 0.62695-0.14912 0.19706-0.43303 0.53571-0.63086 0.75391-0.19781 0.21782-0.4854 0.50787-0.63867 0.64453-0.1529 0.13666-0.42293 0.36549-0.59961 0.50781-0.1763 0.14232-0.54228 0.40504-0.81445 0.58399-0.27257 0.17857-0.73152 0.44576-1.0195 0.59374-0.28842 0.14761-0.71104 0.34464-0.93945 0.4375-0.22839 0.09287-0.61139 0.23196-0.84961 0.30859-0.23858 0.07626-0.63756 0.18721-0.88672 0.2461-0.24953 0.05891-0.61507 0.13392-0.8125 0.16601-0.19706 0.0321-0.53765 0.07859-0.75586 0.10351-0.21782 0.02528-0.7768 0.04568-1.2441 0.04492-0.55532-0.000376-1.026-0.02368-1.3594-0.06449-0.28012-0.03433-0.68676-0.0952-0.90235-0.13672-0.21518-0.04151-0.55382-0.117-0.75391-0.16796-0.19969-0.05098-0.55983-0.15945-0.79882-0.24024-0.23859-0.08078-0.58657-0.20972-0.77344-0.28711-0.18687-0.07777-0.552-0.25031-0.8125-0.38281-0.26048-0.13213-0.64311-0.34588-0.84961-0.47461-0.2065-0.12874-0.53118-0.34859-0.7207-0.48828-0.18913-0.1393-0.52367-0.40897-0.74414-0.59962-0.22084-0.19027-0.55449-0.51165-0.74024-0.71289-0.18611-0.20083-0.45211-0.50887-0.59179-0.68554-0.13968-0.17668-0.38694-0.52428-0.55078-0.77344-0.16422-0.24916-0.42366-0.70809-0.57617-1.0195-0.15252-0.31146-0.34469-0.75401-0.42774-0.98242-0.0831-0.2284-0.21072-0.65268-0.2832-0.94336-0.0725-0.29069-0.16304-0.73128-0.20118-0.98047-0.0517-0.34128-0.0684-0.67359-0.0684-1.3418 0-0.6682 0.0166-0.99859 0.0684-1.3398 0.0382-0.24916 0.12788-0.68687 0.19923-0.97265 0.0717-0.2854 0.18797-0.67504 0.25781-0.86719 0.0698-0.19177 0.18779-0.49362 0.26367-0.66992 0.0759-0.17668 0.22437-0.48262 0.33007-0.67969 0.10533-0.19744 0.31945-0.55117 0.47462-0.7871 0.15478-0.23557 0.39143-0.5672 0.52734-0.73633 0.1359-0.16913 0.37944-0.45305 0.54101-0.63086 0.16158-0.17782 0.46955-0.47846 0.6836-0.66797 0.21443-0.18951 0.53463-0.45312 0.71094-0.58789 0.17668-0.1344 0.52144-0.3742 0.76758-0.53125 0.24651-0.15742 0.67975-0.4038 0.96289-0.54688 0.28313-0.14346 0.71195-0.33846 0.95312-0.4336 0.24123-0.09476 0.66747-0.2404 0.94531-0.32421 0.27786-0.08419 0.74993-0.20365 1.0508-0.26368 0.30126-0.06038 0.70922-0.129 0.90625-0.15429 0.19745-0.02528 0.57969-0.05947 0.84961-0.07422 0.26992-0.01469 0.52489-0.0282 0.56641-0.03127zm-75.979 1.9414c-0.07248 0.0087-0.29279 0.04255-0.49023 0.07617-0.19707 0.03357-0.50587 0.10945-0.68555 0.16797-0.17932 0.0585-0.4681 0.17684-0.64063 0.26367-0.1729 0.08683-0.42584 0.23009-0.5625 0.32031-0.13704 0.09023-0.379 0.2774-0.53906 0.41406-0.16044 0.13666-0.38725 0.36227-0.5039 0.50195-0.11628 0.1393-0.29538 0.37924-0.39844 0.53516-0.10306 0.15554-0.24663 0.40557-0.31836 0.55469s-0.17214 0.39474-0.22461 0.54687c-0.05244 0.15176-0.12878 0.43032-0.16993 0.61718-0.04116 0.18687-0.0852 0.56016-0.09765 0.83008-0.01664 0.36392-0.0063 0.60213 0.04102 0.92188 0.0351 0.23708 0.11665 0.59199 0.17969 0.78906 0.06302 0.19668 0.17278 0.48749 0.24414 0.64453 0.07172 0.15705 0.24269 0.45567 0.38086 0.66406 0.15478 0.23255 0.39793 0.52404 0.63086 0.75586 0.20839 0.20763 0.51017 0.46587 0.66797 0.57422 0.15817 0.10798 0.43686 0.27312 0.62109 0.36524 0.1846 0.09211 0.46032 0.21007 0.61133 0.26367 0.15062 0.05362 0.44105 0.1323 0.64453 0.17383 0.20386 0.04151 0.53805 0.08639 0.74414 0.0996 0.21368 0.01358 0.55145 0.0035 0.78516-0.02145 0.225-0.02417 0.56765-0.08456 0.76172-0.13477 0.19404-0.05056 0.5069-0.15907 0.69531-0.24024 0.188-0.08116 0.45804-0.21502 0.59961-0.29883 0.14119-0.08419 0.35664-0.2294 0.48047-0.32226 0.12344-0.09287 0.36534-0.31072 0.53711-0.48438s0.41202-0.45549 0.5332-0.625c0.12119-0.1695 0.29744-0.46687 0.39258-0.66015 0.09513-0.19329 0.2187-0.48504 0.27344-0.6504 0.05474-0.16535 0.13306-0.4713 0.17383-0.67969 0.05209-0.26652 0.07422-0.53674 0.07422-0.9082 0-0.31598-0.0243-0.66604-0.06052-0.86914-0.03329-0.18808-0.09589-0.4583-0.13867-0.60157-0.04213-0.14327-0.14321-0.41042-0.22265-0.59374-0.07944-0.18401-0.2561-0.50512-0.39258-0.71289-0.13647-0.20844-0.39683-0.5339-0.57812-0.72266-0.18158-0.18838-0.46065-0.4417-0.62109-0.5625-0.16044-0.12119-0.43705-0.29751-0.61524-0.39453-0.17819-0.09701-0.48413-0.23484-0.67969-0.30469-0.19555-0.06984-0.52152-0.15964-0.72461-0.20117-0.2031-0.04116-0.57308-0.08274-0.82227-0.0918v0.0021c-0.24916-0.0095-0.51308-0.01038-0.58593-0.0021zm76.795 2.9648c-0.14082 0.0028-0.39249 0.0202-0.5586 0.03907-0.16611 0.01852-0.47616 0.07403-0.68945 0.125-0.21329 0.05132-0.53559 0.15572-0.7168 0.23047s-0.45036 0.20122-0.5957 0.28125c-0.14535 0.07965-0.39096 0.23308-0.54687 0.3418-0.15553 0.10873-0.46109 0.37794-0.6797 0.59765-0.23141 0.23255-0.49817 0.54783-0.63672 0.75586-0.13099 0.19593-0.30195 0.48553-0.38085 0.64258-0.0789 0.15667-0.19717 0.43447-0.26172 0.61719-0.0646 0.1831-0.15354 0.50539-0.19922 0.7168-0.0687 0.31938-0.0824 0.5041-0.082 1.084 0.00067 0.57043 0.0143 0.76429 0.0801 1.0625 0.0442 0.20122 0.12533 0.49977 0.1797 0.66211 0.0544 0.16233 0.17307 0.44752 0.26367 0.63476 0.0902 0.18687 0.24849 0.46713 0.35156 0.62305 0.10344 0.15553 0.29971 0.41497 0.4375 0.57618 0.1378 0.16082 0.3997 0.41658 0.58203 0.56835 0.18196 0.15176 0.45888 0.35295 0.61328 0.44922 0.15441 0.09627 0.44161 0.25246 0.63867 0.3457 0.19744 0.09325 0.51043 0.21397 0.69727 0.26758 0.1865 0.05397 0.50178 0.12416 0.69922 0.15625 0.19781 0.03245 0.58827 0.05857 0.86914 0.05857 0.30427 0 0.66172-0.02667 0.88672-0.06449 0.20725-0.0351 0.53929-0.11349 0.73632-0.17578 0.19745-0.06268 0.51401-0.18712 0.70313-0.27734 0.18913-0.09022 0.49842-0.26888 0.68945-0.39648 0.19102-0.1276 0.50024-0.37846 0.6875-0.55664 0.18762-0.17819 0.46342-0.48623 0.61329-0.68555 0.15025-0.19934 0.37169-0.55333 0.49023-0.78516 0.11854-0.23142 0.26262-0.57083 0.32226-0.75391 0.06-0.18271 0.14119-0.47603 0.17969-0.65234 0.0544-0.24991 0.0699-0.4832 0.0703-1.0566 0.00068-0.57005-0.0152-0.81022-0.0684-1.0586-0.0373-0.17668-0.11935-0.47328-0.18164-0.66015-0.0619-0.18687-0.17981-0.47894-0.26172-0.64844-0.0819-0.1695-0.25371-0.46612-0.38282-0.66015-0.12948-0.19367-0.39787-0.51997-0.5957-0.72461-0.19819-0.20499-0.50055-0.47914-0.67383-0.60938-0.17365-0.13062-0.48125-0.32399-0.68359-0.42969-0.20273-0.10609-0.4838-0.23583-0.625-0.28906-0.14119-0.0532-0.41981-0.13805-0.61914-0.1875-0.19932-0.04986-0.52695-0.107-0.72851-0.1289-0.2016-0.02187-0.48224-0.03781-0.62305-0.03517zm-66.231 16.439c0.23897-0.007 1.6738-0.007 3.1895 0s3.2148 0.0296 3.7754 0.05077 1.4111 0.05627 1.8887 0.07812c0.47756 0.02152 1.3261 0.06435 1.8867 0.0957 0.5606 0.03092 1.5368 0.08933 2.1699 0.13086 0.63347 0.04151 1.7133 0.1182 2.3984 0.16992 0.68516 0.05174 1.654 0.12839 2.1523 0.16992 0.49832 0.04192 1.5765 0.1365 2.3965 0.20899 0.82034 0.07248 3.5392 0.32504 6.041 0.5625 2.5022 0.23746 5.1261 0.48502 5.832 0.54883 0.70594 0.06379 1.5218 0.14048 1.8125 0.16993 0.29068 0.02981 0.90994 0.07962 1.377 0.11132 0.46737 0.03169 1.3085 0.07495 1.8691 0.09571 0.56061 0.02075 2.0557 0.05383 3.3223 0.07421 1.2666 0.02075 2.6597 0.04687 3.0957 0.05857 0.43603 0.0117 1.2009 0.03781 1.6992 0.05857 0.49832 0.02075 1.2706 0.0624 1.7168 0.09375 0.44622 0.03134 1.1442 0.09167 1.5488 0.13282 0.40507 0.04116 1.0913 0.12679 1.5274 0.18945 0.43603 0.06267 1.0989 0.17285 1.4726 0.24609 0.37374 0.07323 0.98566 0.20949 1.3594 0.30274s0.9265 0.25115 1.2285 0.35156c0.30164 0.10042 0.73524 0.26526 0.9629 0.36719 0.22764 0.10155 0.55525 0.26999 0.72851 0.37305 0.17327 0.10307 0.44653 0.29074 0.60547 0.41797 0.15931 0.12722 0.38941 0.35687 0.51172 0.50977 0.12269 0.15289 0.29485 0.43226 0.38281 0.61914 0.0879 0.18687 0.18471 0.45817 0.21679 0.60352 0.0321 0.14534 0.0704 0.40926 0.084 0.58594s0.006 0.48798-0.0175 0.69336c-0.0234 0.20537-0.0691 0.50115-0.10156 0.6582-0.0329 0.15742-0.11729 0.4874-0.18751 0.73242-0.0706 0.24464-0.22318 0.6868-0.33984 0.98242-0.11703 0.29597-0.29821 0.71536-0.40429 0.93359-0.10571 0.21782-0.31207 0.57476-0.45703 0.79297-0.16876 0.25369-0.40691 0.54013-0.66211 0.79493-0.25143 0.25142-0.53994 0.49183-0.7793 0.65039-0.20914 0.13855-0.50941 0.31153-0.66797 0.38476-0.15855 0.07324-0.42292 0.18336-0.58789 0.24414-0.16536 0.06114-0.51128 0.16156-0.76758 0.22461-0.25634 0.06268-0.70339 0.14792-0.99414 0.18945-0.29068 0.04151-0.75662 0.09373-1.0371 0.11524-0.28049 0.02152-1.1216 0.05536-1.8691 0.07617-0.74749 0.02075-2.1406 0.05669-3.0957 0.08008-1.0389 0.0257-2.5931 0.03231-3.8691 0.01755-1.1729-0.01323-2.77-0.04053-3.5488-0.06059-0.77844-0.01999-1.8913-0.05307-2.4726-0.07422-0.58137-0.02117-1.6265-0.06435-2.3223-0.0957-0.69542-0.03134-1.8846-0.08971-2.6426-0.13086-0.75768-0.04151-1.9215-0.11043-2.5859-0.15234-0.66443-0.04151-1.9209-0.12558-2.793-0.1875-0.87209-0.06191-1.9008-0.13702-2.2852-0.16797-0.38394-0.03134-1.1305-0.09211-1.6602-0.13477-0.52927-0.04269-1.6604-0.13651-2.5117-0.20899-0.85213-0.07129-2.1934-0.1917-2.9824-0.26367-0.78898-0.07265-2.147-0.19901-3.0195-0.2832-0.87182-0.08351-2.5127-0.24404-3.6445-0.35742-1.1314-0.11325-2.5576-0.25689-3.1699-0.32031-0.61233-0.06344-1.6668-0.17355-2.3418-0.24414-0.67462-0.0706-1.8969-0.19788-2.7168-0.2832-0.906-0.095-1.66-0.194-1.924-0.252-0.239-0.053-0.664-0.173-0.943-0.266-0.28-0.093-0.704-0.255-0.944-0.357-0.239-0.103-0.707-0.327-1.039-0.498-0.332-0.172-0.826-0.452-1.099-0.621-0.27294-0.1695-0.7017-0.45753-0.95313-0.64063-0.25105-0.1831-0.64557-0.49348-0.87695-0.68945-0.23104-0.19631-0.60352-0.54758-0.82812-0.78125-0.22462-0.23368-0.54115-0.6005-0.70313-0.81641-0.16233-0.21594-0.37809-0.53206-0.47851-0.70117-0.1008-0.16913-0.25056-0.46327-0.33399-0.6543-0.08305-0.1914-0.19437-0.50996-0.24609-0.70703-0.06456-0.24576-0.09969-0.50317-0.11328-0.82031-0.01281-0.28729-0.0035-0.57385 0.02542-0.75391 0.0257-0.15969 0.0901-0.41912 0.14258-0.57617 0.05251-0.15667 0.14511-0.38519 0.20703-0.50977 0.06191-0.12458 0.20265-0.3632 0.3125-0.5293 0.11023-0.16611 0.31705-0.43367 0.45899-0.59374 0.14232-0.16044 0.36592-0.3889 0.49805-0.50782l0.24218-0.21484 0.4375-0.04687c0.24161-0.0257 0.86373-0.08234 1.3828-0.125 0.51908-0.04269 1.0636-0.08671 1.209-0.09766 0.14534-0.01093 0.68097-0.04478 1.1895-0.07421 0.50851-0.02981 1.4427-0.07306 2.0762-0.09571 0.63347-0.02263 1.3473-0.04631 1.5859-0.05272zm15.479 24.498c-1.7958-0.0079-3.7499 0.000209-4.3418 0.01755-0.59156 0.01734-1.4658 0.05077-1.9434 0.07422-0.47756 0.0234-1.3004 0.07447-1.8301 0.11523-0.52966 0.04081-1.1922 0.10072-1.4727 0.13281-0.28012 0.03169-0.81693 0.10839-1.1934 0.16993-0.37638 0.06191-0.90463 0.17285-1.1719 0.24609-0.26728 0.07323-0.60956 0.19441-0.76172 0.26953-0.18348 0.0906-0.32466 0.19287-0.41602 0.30274-0.07626 0.09098-0.22355 0.31495-0.32813 0.49804-0.10495 0.18272-0.28033 0.53926-0.38867 0.79297-0.10797 0.25369-0.30745 0.78725-0.44336 1.1856-0.13628 0.39827-0.34063 1.0428-0.45312 1.4316-0.1125 0.38884-0.30586 1.1098-0.42969 1.6035-0.12383 0.49341-0.31151 1.2881-0.41797 1.7656-0.10609 0.47755-0.29175 1.3697-0.41406 1.9824-0.12231 0.61233-0.32584 1.6995-0.45117 2.416-0.12496 0.71613-0.30324 1.7944-0.39648 2.3965-0.09287 0.60213-0.22792 1.5289-0.30079 2.0586-0.07248 0.52927-0.1838 1.3689-0.24609 1.8672-0.06267 0.49832-0.1639 1.3742-0.22656 1.9453-0.06226 0.5708-0.15531 1.505-0.20703 2.0762-0.05174 0.5708-0.1222 1.394-0.15429 1.8301-0.03245 0.43603-0.0851 1.2262-0.11719 1.7559-0.03245 0.52966-0.06839 1.8061-0.08008 2.8359-0.014 1.253-0.0049 2.1398 0.02542 2.6797 0.02528 0.44433 0.07635 1.0888 0.11523 1.4316 0.03886 0.3424 0.11557 0.84945 0.16993 1.127 0.05397 0.27785 0.14984 0.6601 0.21289 0.84961 0.06302 0.18951 0.16824 0.44365 0.23242 0.56446 0.06379 0.12118 0.17601 0.27011 0.25 0.33202 0.074 0.0619 0.2575 0.17204 0.40626 0.24415 0.14836 0.0721 0.49634 0.2059 0.77344 0.29687 0.2771 0.0914 0.78413 0.23336 1.127 0.31641 0.3424 0.0834 0.92902 0.21115 1.3027 0.28515 0.37374 0.074 0.98371 0.18614 1.3574 0.24805 0.37374 0.0623 1.0292 0.16389 1.4551 0.22657 0.42584 0.0627 1.2397 0.1736 1.8105 0.24609 0.57118 0.0725 1.4217 0.17289 1.8887 0.2246 0.46737 0.0521 1.3669 0.1467 2 0.20899 0.63347 0.0623 1.7459 0.16427 2.4727 0.22657 0.72671 0.0619 1.7812 0.14558 2.3418 0.18749 0.56061 0.0416 1.5368 0.11082 2.1699 0.15235 0.63347 0.0416 1.6093 0.10148 2.1699 0.13281 0.5606 0.0317 1.5458 0.082 2.1895 0.11328 0.64366 0.0313 1.8328 0.0827 2.6426 0.11328 0.80976 0.0306 2.2029 0.0759 3.0957 0.10156 0.89279 0.0254 3.1691 0.0469 5.0586 0.0469 2.0197 0 3.9344-0.0197 4.6445-0.0469 0.66443-0.0254 1.5387-0.0632 1.9434-0.084 0.40507-0.0207 1.1026-0.0625 1.5488-0.0937 0.44622-0.0317 1.0838-0.0823 1.416-0.11328 0.33221-0.031 0.88414-0.0913 1.2266-0.13281 0.3424-0.0416 0.936-0.12642 1.3203-0.18946 0.38431-0.0634 0.95464-0.18169 1.2676-0.26171 0.31297-0.0797 0.72823-0.20613 0.92187-0.28126 0.19367-0.0747 0.45065-0.19509 0.57031-0.26757 0.11967-0.0729 0.26735-0.18872 0.32813-0.25781 0.0608-0.0695 0.19748-0.27993 0.30469-0.4668 0.10684-0.18725 0.27168-0.51689 0.36719-0.73243 0.0959-0.21555 0.2464-0.58757 0.33398-0.82616 0.088-0.23897 0.22176-0.63757 0.29688-0.88673 0.0747-0.24915 0.18733-0.65794 0.24999-0.9082 0.0627-0.25067 0.16503-0.69129 0.22657-0.98046 0.0619-0.28956 0.17091-0.89167 0.24414-1.3379 0.0732-0.44661 0.17642-1.1605 0.22851-1.5859 0.0521-0.42584 0.12102-1.0541 0.15235-1.3965 0.0313-0.34278 0.0823-0.99826 0.11328-1.4551 0.031-0.45679 0.0738-1.2633 0.0957-1.793 0.0215-0.52966 0.0394-1.8788 0.0391-3 0-1.1212-0.0178-2.498-0.0391-3.0586-0.0211-0.56061-0.055-1.3329-0.0762-1.7168-0.0215-0.38431-0.0554-0.95417-0.0762-1.2656-0.0203-0.31144-0.071-0.98174-0.11328-1.4902-0.0419-0.50889-0.12054-1.3247-0.17188-1.8125-0.0517-0.48813-0.1354-1.2273-0.18749-1.6426-0.0525-0.41526-0.14671-1.1038-0.20899-1.5293-0.0627-0.42584-0.16503-1.0663-0.22657-1.4238-0.0611-0.35751-0.17985-0.98577-0.26367-1.3965-0.0838-0.41074-0.23685-1.0851-0.34179-1.498-0.10458-0.413-0.26405-0.9748-0.35352-1.25-0.0895-0.27483-0.24282-0.68961-0.33985-0.91992-0.0974-0.2299-0.24185-0.52032-0.32226-0.64453-0.0804-0.1242-0.21584-0.27598-0.30078-0.33789-0.0853-0.0615-0.27628-0.16232-0.42578-0.22462-0.14949-0.0623-0.46805-0.17165-0.70703-0.24413-0.23896-0.0725-0.7089-0.19284-1.0449-0.26758-0.33599-0.0751-0.93159-0.1966-1.3223-0.26758-0.39073-0.0713-1.1006-0.1881-1.5781-0.26172-0.47756-0.07362-1.4106-0.20172-2.0742-0.28516-0.66404-0.08344-1.7602-0.21109-2.4355-0.2832-0.67538-0.07248-1.78-0.18223-2.4551-0.24414-0.67461-0.06191-1.6434-0.14793-2.1523-0.18945-0.50851-0.04192-1.3991-0.10887-1.9805-0.15039-0.58137-0.04116-1.3116-0.09176-1.623-0.11328-0.31146-0.0211-1.1456-0.07371-1.8516-0.11524-0.70594-0.04116-1.9877-0.10767-2.8496-0.14844-0.86149-0.04116-2.0763-0.09296-2.6992-0.11523-0.6229-0.02228-1.6497-0.05731-2.2832-0.07813-0.63309-0.02075-2.6218-0.04436-4.418-0.05272zm-12.457 40.977-0.07422 0.0762c-0.04074 0.0407-0.1158 0.15425-0.16601 0.25391-0.05021 0.0993-0.14204 0.34162-0.20508 0.53906-0.06267 0.19706-0.1589 0.5572-0.21289 0.79883-0.05397 0.24161-0.14044 0.66098-0.19141 0.93164-0.05098 0.27106-0.15174 0.88712-0.22461 1.3711-0.07248 0.48434-0.18342 1.2888-0.24609 1.7871-0.06226 0.49832-0.17166 1.4578-0.24414 2.1328-0.0721 0.67461-0.17409 1.6781-0.22656 2.2285-0.05251 0.55004-0.15528 1.7045-0.22851 2.5664-0.07286 0.8615-0.19201 2.3893-0.26563 3.3965-0.07362 1.0068-0.13559 2.0014-0.13672 2.209-0.0014 0.23633 0.02131 0.46941 0.06052 0.62305 0.03433 0.13478 0.12163 0.36562 0.19336 0.51172 0.07135 0.1461 0.20021 0.35006 0.28515 0.45313 0.08494 0.10306 0.24978 0.2691 0.36719 0.36914 0.11703 0.0997 0.33122 0.23919 0.47656 0.31055 0.14534 0.071 0.37499 0.15869 0.50977 0.19531 0.21971 0.0597 0.45441 0.0664 2.2461 0.0664h2.002l0.24414-0.0684c0.13515-0.0382 0.3766-0.13646 0.53516-0.21875 0.15856-0.0823 0.38954-0.24342 0.51562-0.35743 0.12571-0.11401 0.31043-0.32738 0.4082-0.47461 0.09815-0.14723 0.22917-0.41479 0.29297-0.59375l0.11719-0.32422-0.0056-0.54882c-0.0028-0.30126-0.04875-1.1498-0.10352-1.8867-0.05439-0.7369-0.14284-1.8754-0.19531-2.5293-0.05209-0.65423-0.16184-1.9323-0.24414-2.8398-0.08267-0.90719-0.20138-2.129-0.26367-2.7168-0.06226-0.58741-0.15652-1.4342-0.20899-1.8809-0.05251-0.4466-0.17201-1.3469-0.26562-2-0.09362-0.6531-0.22905-1.4959-0.30078-1.875-0.07211-0.37903-0.18766-0.91993-0.25977-1.2012-0.0721-0.28124-0.18468-0.63984-0.25-0.79688-0.06567-0.15704-0.16155-0.33532-0.21289-0.39648l-0.0918-0.10743-1.7148-0.004zm32.549 0-0.10352 0.12304c-0.0566 0.0675-0.13614 0.19852-0.17578 0.29102-0.0396 0.0925-0.11347 0.29608-0.16406 0.45313-0.0502 0.15667-0.13427 0.46919-0.1875 0.69531-0.0529 0.22576-0.15484 0.73082-0.22656 1.1211-0.0714 0.38998-0.197 1.1818-0.2793 1.7598-0.0827 0.57798-0.20063 1.4914-0.26367 2.0312-0.0627 0.53984-0.14951 1.3047-0.19141 1.6992s-0.12596 1.245-0.1875 1.8887c-0.0615 0.64367-0.16389 1.7818-0.22656 2.5293-0.0627 0.74748-0.14718 1.809-0.18945 2.3594-0.0419 0.55004-0.11082 1.483-0.15235 2.0742-0.0419 0.59118-0.0762 1.1961-0.0762 1.3438 0 0.14761 0.0334 0.40048 0.0742 0.56055 0.0412 0.16007 0.13663 0.40972 0.21289 0.55468 0.0763 0.14497 0.2476 0.38119 0.38086 0.5254 0.13364 0.14421 0.36613 0.33719 0.51563 0.42968 0.14911 0.0925 0.37435 0.20344 0.50194 0.2461 0.12761 0.0426 0.35076 0.0949 0.4961 0.11719 0.17328 0.0272 0.90533 0.0363 2.127 0.0274 1.6335-0.0121 1.8933-0.0204 2.0918-0.0781 0.12458-0.0363 0.35228-0.12882 0.50782-0.20508 0.21329-0.10457 0.36429-0.21895 0.60741-0.46093 0.22916-0.2284 0.36323-0.40084 0.46289-0.59375 0.077-0.1495 0.1737-0.40243 0.21485-0.5625 0.0426-0.16762 0.0742-0.41605 0.0742-0.58594 0-0.16233-0.051-1.0129-0.11328-1.8906-0.0627-0.87813-0.1639-2.2259-0.22657-2.9942-0.0622-0.76827-0.15726-1.8647-0.20898-2.4356-0.0517-0.57118-0.14436-1.5381-0.20703-2.1504-0.0627-0.61271-0.15726-1.4885-0.20899-1.9453-0.0517-0.4568-0.14594-1.2217-0.20898-1.6992-0.0627-0.47756-0.16383-1.1895-0.22461-1.584-0.0612-0.39451-0.16275-0.9811-0.22656-1.3027-0.0639-0.32202-0.16623-0.78907-0.22852-1.0371-0.0623-0.24841-0.16547-0.58459-0.22851-0.74805-0.063-0.16347-0.16623-0.35677-0.22852-0.42773l-0.11328-0.12894h-1.709z"
     fill="#ffffff" /></svg>