<?xml version="1.0" encoding="UTF-8" standalone="no"?>
<svg
   xmlns:dc="http://purl.org/dc/elements/1.1/"
   xmlns:cc="http://creativecommons.org/ns#"
   xmlns:rdf="http://www.w3.org/1999/02/22-rdf-syntax-ns#"
   xmlns:svg="http://www.w3.org/2000/svg"
   xmlns="http://www.w3.org/2000/svg"
   id="svg11"
   xml:space="preserve"
   enable-background="new 0 0 200 200"
   viewBox="0 0 200 200"
   y="0px"
   x="0px"
   version="1.1"><metadata
     id="metadata15"><rdf:RDF><cc:Work
         rdf:about=""><dc:format>image/svg+xml</dc:format><dc:type
           rdf:resource="http://purl.org/dc/dcmitype/StillImage" /></cc:Work></rdf:RDF></metadata><defs
     id="defs125034" /><linearGradient
     spreadMethod="pad"
     y2="30%"
     x2="-10%"
     y1="120%"
     x1="30%"
     id="3d_gradient2-logo-4aede573-5401-4d10-b982-f9cc269c58bb"><stop
       id="stop125011"
       stop-opacity="1"
       stop-color="#ffffff"
       offset="0%" /><stop
       id="stop125013"
       stop-opacity="1"
       stop-color="#000000"
       offset="100%" /></linearGradient><linearGradient
     gradientTransform="rotate(-30)"
     spreadMethod="pad"
     y2="30%"
     x2="-10%"
     y1="120%"
     x1="30%"
     id="3d_gradient3-logo-4aede573-5401-4d10-b982-f9cc269c58bb"><stop
       id="stop125016"
       stop-opacity="1"
       stop-color="#ffffff"
       offset="0%" /><stop
       id="stop125018"
       stop-opacity="1"
       stop-color="#cccccc"
       offset="50%" /><stop
       id="stop125020"
       stop-opacity="1"
       stop-color="#000000"
       offset="100%" /></linearGradient><path
     style="fill:#000000;stroke-width:0.67898333"
     d="m 75.340022,40.000366 c -2.065738,0.0034 -4.57173,0.01888 -5.568342,0.03436 -0.996611,0.01548 -2.465931,0.04719 -3.265502,0.07022 -0.799231,0.02341 -1.878136,0.05889 -2.397219,0.07928 -0.519082,0.02038 -1.453431,0.06229 -2.076331,0.09362 -0.622899,0.03096 -1.523299,0.0823 -2.000828,0.113255 -0.477556,0.03133 -1.182381,0.0823 -1.566686,0.113635 -0.383931,0.03133 -0.961508,0.0823 -1.28355,0.113634 -0.321641,0.03133 -0.950237,0.100042 -1.396804,0.152513 -0.446221,0.05285 -1.082367,0.138174 -1.413032,0.189892 -0.331079,0.05134 -0.781103,0.127974 -1.000414,0.169881 -0.219713,0.04191 -0.60289,0.126848 -0.852056,0.188758 -0.24916,0.06154 -0.588923,0.155915 -0.75503,0.20952 -0.166106,0.05323 -0.457927,0.172523 -0.648572,0.264641 -0.280114,0.135525 -0.393369,0.217071 -0.590056,0.425838 -0.134018,0.141948 -0.371472,0.45113 -0.527387,0.686724 -0.156289,0.235946 -0.386199,0.624033 -0.511533,0.862987 -0.12496,0.238588 -0.328437,0.671977 -0.452264,0.962663 -0.123446,0.290686 -0.314471,0.774652 -0.42395,1.075917 -0.109859,0.300878 -0.29144,0.844519 -0.40356,1.208047 -0.112501,0.363168 -0.304653,1.051406 -0.426972,1.528935 -0.122693,0.477556 -0.28427,1.148432 -0.35902,1.491183 -0.07512,0.342404 -0.1948,0.927898 -0.266147,1.300524 -0.07135,0.372986 -0.188378,1.027234 -0.260105,1.453432 -0.07173,0.426592 -0.189511,1.191819 -0.261993,1.700717 -0.07248,0.508511 -0.174791,1.290001 -0.227262,1.736568 -0.05247,0.446221 -0.137793,1.253335 -0.189138,1.793195 -0.05172,0.539846 -0.119297,1.312611 -0.150626,1.717692 -0.03095,0.404694 -0.0823,1.169141 -0.113254,1.698816 -0.03133,0.529275 -0.07777,1.429668 -0.103817,2.000828 -0.02718,0.605158 -0.04643,2.163513 -0.04643,3.737396 3.77e-4,1.568927 0.01963,3.110355 0.04681,3.680769 0.02529,0.539846 0.07211,1.389267 0.103436,1.887573 0.03171,0.49832 0.09098,1.305074 0.132511,1.793195 0.04115,0.488128 0.117783,1.277915 0.170261,1.755444 0.05247,0.477556 0.154028,1.284296 0.226129,1.793194 0.07211,0.508511 0.190265,1.269563 0.263126,1.690533 0.07248,0.421309 0.198576,1.083861 0.280115,1.472307 0.08155,0.388841 0.199329,0.921109 0.261992,1.183536 0.06267,0.262373 0.191399,0.75727 0.285404,1.099682 0.094,0.342784 0.266528,0.90943 0.383178,1.259785 0.116649,0.350335 0.312957,0.891709 0.436029,1.203159 0.123446,0.311449 0.366943,0.855043 0.541734,1.208047 0.174791,0.352976 0.439051,0.828631 0.587789,1.057041 0.149118,0.228396 0.377134,0.551172 0.507377,0.717278 0.130243,0.166106 0.395637,0.456793 0.590057,0.646304 0.19442,0.189137 0.447735,0.404321 0.562877,0.477556 0.115142,0.07361 0.319,0.180073 0.453018,0.2367 0.134017,0.05663 0.388086,0.152514 0.564384,0.213296 0.176298,0.0604 0.647438,0.19404 1.046449,0.296729 0.399412,0.102683 1.146871,0.270677 1.661065,0.37336 0.514554,0.102682 1.402847,0.263126 1.973669,0.357131 0.571181,0.09362 1.522484,0.239722 2.114082,0.324283 0.591945,0.08456 1.74716,0.237454 2.5671,0.340143 0.820348,0.10231 2.026494,0.245765 2.680355,0.318247 0.654234,0.07286 1.690532,0.183848 2.30284,0.246518 0.612707,0.06267 1.742203,0.173277 2.510472,0.245765 0.76827,0.07286 2.084615,0.191025 2.92574,0.263507 0.841124,0.07248 2.285118,0.191398 3.208875,0.26426 0.923756,0.07324 2.639955,0.200836 3.812898,0.283516 1.173284,0.08305 2.659578,0.184982 3.303254,0.226889 0.643663,0.04228 2.019704,0.127221 3.057869,0.189138 1.038166,0.06154 2.677707,0.154781 3.643017,0.207253 0.965651,0.0521 2.451945,0.128355 3.303254,0.169881 0.85131,0.04153 2.329253,0.10948 3.284378,0.151006 0.955126,0.04115 2.39912,0.100795 3.208875,0.13175 0.809756,0.03133 1.964979,0.074 2.567109,0.09513 0.60213,0.02076 1.6301,0.05474 2.28396,0.0755 0.65423,0.02076 1.84344,0.05512 2.6426,0.07626 0.79957,0.02114 2.19224,0.05512 3.09562,0.07512 0.90339,0.02001 3.10316,0.05587 4.88882,0.08003 1.96382,0.02643 4.84278,0.03436 7.28617,0.02038 2.2217,-0.01321 4.71893,-0.04039 5.54947,-0.06078 0.83053,-0.02076 2.05365,-0.05549 2.7181,-0.07701 0.66443,-0.02152 1.77731,-0.06456 2.47272,-0.09551 0.69576,-0.03058 1.57918,-0.07323 1.96308,-0.09438 0.38431,-0.02114 1.0808,-0.0638 1.54781,-0.09476 0.46736,-0.03058 1.1722,-0.08116 1.56669,-0.11212 0.3945,-0.03096 0.89585,-0.07286 1.11366,-0.09325 0.21821,-0.02038 0.74485,-0.07211 1.1703,-0.114762 0.42584,-0.04266 1.11367,-0.120051 1.52893,-0.172149 0.41527,-0.05172 0.98453,-0.128355 1.26468,-0.170262 0.28049,-0.04191 0.65423,-0.101549 0.83053,-0.13251 0.17668,-0.03133 0.5844,-0.107592 0.90604,-0.169882 0.32202,-0.06191 0.84866,-0.180453 1.17029,-0.263507 0.32202,-0.08305 0.76372,-0.211408 0.98154,-0.285023 0.21821,-0.07362 0.55155,-0.20688 0.7407,-0.295596 0.18951,-0.0891 0.44547,-0.230664 0.5693,-0.314471 0.12344,-0.08419 0.27898,-0.214803 0.34542,-0.290306 0.0665,-0.0755 0.27068,-0.36166 0.45377,-0.635358 0.1831,-0.274079 0.46359,-0.722574 0.62328,-0.997019 0.15969,-0.274833 0.43943,-0.794275 0.62177,-1.154815 0.18234,-0.360147 0.43489,-0.891709 0.56136,-1.180481 0.1261,-0.289179 0.29258,-0.678392 0.36959,-0.865296 0.0766,-0.18687 0.23746,-0.60327 0.35751,-0.924911 0.11967,-0.322021 0.33749,-0.950577 0.48435,-1.396805 0.14647,-0.446221 0.35146,-1.109119 0.45528,-1.472307 0.10382,-0.363548 0.26577,-0.958113 0.35977,-1.321301 0.0944,-0.363548 0.24765,-1.000414 0.34052,-1.415681 0.0932,-0.415266 0.23028,-1.060843 0.30428,-1.434556 0.0744,-0.373739 0.21027,-1.121205 0.30201,-1.661064 0.0921,-0.539846 0.22688,-1.414934 0.29974,-1.944201 0.0725,-0.529655 0.16649,-1.268477 0.20839,-1.642189 0.0423,-0.37374 0.11061,-1.044956 0.15214,-1.491183 0.0412,-0.446221 0.10118,-1.185369 0.13251,-1.642189 0.0314,-0.456793 0.0755,-1.127995 0.0974,-1.491184 0.0223,-0.363548 0.0498,-1.699223 0.0615,-2.968039 0.014,-1.494578 0.005,-2.698076 -0.023,-3.416508 -0.0245,-0.610067 -0.0695,-1.4829 -0.10004,-1.939652 -0.0306,-0.456793 -0.0725,-1.02608 -0.0929,-1.264674 -0.0204,-0.238969 -0.063,-0.688965 -0.0948,-1.000414 -0.0317,-0.31145 -0.0917,-0.83807 -0.13365,-1.170296 -0.0416,-0.332213 -0.11816,-0.892795 -0.17025,-1.245799 -0.0517,-0.352976 -0.13742,-0.888314 -0.1899,-1.189171 -0.0528,-0.301258 -0.16308,-0.878876 -0.24538,-1.28355 -0.0823,-0.405075 -0.24124,-1.101583 -0.35336,-1.54781 -0.11174,-0.446602 -0.29106,-1.100429 -0.39789,-1.453432 -0.10722,-0.352976 -0.27144,-0.854297 -0.36506,-1.113669 -0.0936,-0.259731 -0.2435,-0.651966 -0.33335,-0.872425 -0.0898,-0.220093 -0.25142,-0.593832 -0.35939,-0.830533 -0.10759,-0.236326 -0.29824,-0.616856 -0.42358,-0.845266 -0.12495,-0.228396 -0.35032,-0.602136 -0.50058,-0.830532 -0.15025,-0.228397 -0.3877,-0.557588 -0.52814,-0.731265 -0.14044,-0.174037 -0.38205,-0.442446 -0.53645,-0.597227 -0.15441,-0.154401 -0.41376,-0.379403 -0.57646,-0.499827 -0.16271,-0.120805 -0.42395,-0.272564 -0.58025,-0.337876 -0.15667,-0.06531 -0.48736,-0.176678 -0.73466,-0.248025 -0.24727,-0.07097 -0.77051,-0.197442 -1.16276,-0.280869 -0.39186,-0.08343 -1.06084,-0.210654 -1.48663,-0.283136 -0.42546,-0.07248 -1.24091,-0.200083 -1.81207,-0.283516 -0.5708,-0.08343 -1.58176,-0.219712 -2.24621,-0.302765 -0.66443,-0.08267 -1.75164,-0.210655 -2.4161,-0.283517 -0.66442,-0.07286 -1.53912,-0.16686 -1.9442,-0.208387 -0.40469,-0.04191 -1.18618,-0.118163 -1.73657,-0.169881 -0.55003,-0.05172 -1.37412,-0.128355 -1.83094,-0.170262 -0.4568,-0.04191 -1.64599,-0.143836 -2.64261,-0.226889 -0.99661,-0.08305 -2.6022,-0.209901 -3.56751,-0.282382 -0.96531,-0.07248 -2.12087,-0.157423 -2.5671,-0.189511 -0.44622,-0.03171 -1.44019,-0.100042 -2.20846,-0.15176 -0.76827,-0.05135 -2.08462,-0.135905 -2.92574,-0.188004 -0.84072,-0.05172 -2.10655,-0.128355 -2.81248,-0.169501 -0.70594,-0.04153 -1.75925,-0.101549 -2.3406,-0.133264 -0.58137,-0.03209 -1.36285,-0.07475 -1.73656,-0.09513 -0.37374,-0.02038 -1.18048,-0.06267 -1.7932,-0.09363 -0.61233,-0.03095 -2.01407,-0.09853 -3.11449,-0.150252 -1.10043,-0.0521 -2.6037,-0.119671 -3.34101,-0.151006 -0.7369,-0.03133 -1.98575,-0.0823 -2.77473,-0.113254 -0.78898,-0.03133 -2.165081,-0.08267 -3.057877,-0.114008 -0.892795,-0.03171 -2.413038,-0.08267 -3.378756,-0.113255 -0.965311,-0.03095 -2.749068,-0.08116 -3.963905,-0.11212 -1.214497,-0.03096 -3.083195,-0.074 -4.152662,-0.09589 -1.069127,-0.02152 -3.158698,-0.05587 -4.643431,-0.07588 -1.484393,-0.02001 -4.389763,-0.03398 -6.455502,-0.03095 z m -13.760275,9.72372 c 0.269923,0.0091 0.71008,0.04077 0.978143,0.07022 0.268416,0.02945 0.693853,0.09551 0.945688,0.146477 0.252181,0.05096 0.664046,0.15214 0.915473,0.224621 0.251428,0.07211 0.658383,0.211028 0.904134,0.308055 0.245765,0.09702 0.650833,0.278227 0.899993,0.402807 0.249159,0.12496 0.631583,0.338256 0.849408,0.474161 0.218205,0.135905 0.523992,0.340517 0.679526,0.454151 0.155915,0.114009 0.437917,0.339764 0.627428,0.502095 0.189511,0.161951 0.516815,0.475288 0.727463,0.696162 0.211028,0.220846 0.525499,0.59081 0.699149,0.822248 0.173657,0.231418 0.414133,0.581753 0.534564,0.779202 0.120051,0.197061 0.324662,0.579485 0.454151,0.849408 0.129489,0.269923 0.297483,0.668955 0.372986,0.887159 0.07588,0.217825 0.187624,0.599495 0.248406,0.847915 0.06078,0.248406 0.140061,0.639134 0.175925,0.868284 0.04908,0.311829 0.06456,0.635732 0.06229,1.285043 -0.0022,0.759579 -0.0151,0.93659 -0.100422,1.415681 -0.05361,0.300878 -0.157802,0.755776 -0.231418,1.010259 -0.07361,0.254822 -0.211408,0.653854 -0.306921,0.887159 -0.09513,0.233306 -0.267655,0.602517 -0.383177,0.820688 -0.115896,0.217824 -0.319754,0.562877 -0.453398,0.765961 -0.133637,0.203477 -0.380536,0.542114 -0.54853,0.753128 -0.167994,0.210655 -0.49341,0.571181 -0.723728,0.800725 -0.230284,0.22953 -0.562878,0.53343 -0.739549,0.674998 -0.176298,0.141948 -0.533049,0.399412 -0.792781,0.572315 -0.259351,0.172903 -0.612327,0.391481 -0.78375,0.485486 -0.17177,0.094 -0.48586,0.250667 -0.698403,0.348448 -0.212542,0.0974 -0.539465,0.234439 -0.726308,0.304279 -0.18687,0.06984 -0.543621,0.185736 -0.792781,0.258218 -0.24916,0.07211 -0.66518,0.173276 -0.924911,0.225001 -0.259351,0.05172 -0.721827,0.120051 -1.027573,0.15176 -0.305787,0.03209 -0.823743,0.05813 -1.15142,0.05813 -0.327684,0 -0.782596,-0.01737 -1.011006,-0.03851 -0.228397,-0.02076 -0.627429,-0.07323 -0.88716,-0.116649 -0.259351,-0.04303 -0.660651,-0.126848 -0.891301,-0.186116 -0.230665,-0.05927 -0.579105,-0.161578 -0.773906,-0.227643 -0.1948,-0.06606 -0.4734,-0.16724 -0.618744,-0.224621 -0.145343,-0.05776 -0.434141,-0.185736 -0.641775,-0.284644 -0.207633,-0.09891 -0.59836,-0.311449 -0.868283,-0.472273 -0.269923,-0.160824 -0.643663,-0.406962 -0.830533,-0.546263 -0.18687,-0.13968 -0.506623,-0.399031 -0.710827,-0.576463 -0.204239,-0.177432 -0.51304,-0.476803 -0.685977,-0.66518 -0.172903,-0.188377 -0.403561,-0.453018 -0.512286,-0.587789 -0.108726,-0.135152 -0.332594,-0.449242 -0.497186,-0.698402 -0.164972,-0.24916 -0.424704,-0.70784 -0.577597,-1.01929 -0.152514,-0.31145 -0.346934,-0.769016 -0.431501,-1.017049 -0.08494,-0.248026 -0.18725,-0.580239 -0.227643,-0.738394 -0.04039,-0.158176 -0.110986,-0.507377 -0.157049,-0.776146 -0.06984,-0.406209 -0.08419,-0.63838 -0.08607,-1.375688 -0.0019,-0.681767 0.01359,-0.987582 0.06644,-1.319808 0.03737,-0.238215 0.125333,-0.654234 0.19442,-0.924911 0.06946,-0.270677 0.195927,-0.677639 0.280868,-0.903795 0.08532,-0.226509 0.259732,-0.624033 0.388087,-0.883764 0.128355,-0.259352 0.38129,-0.694261 0.562116,-0.966465 0.180827,-0.271811 0.463963,-0.655742 0.629316,-0.852803 0.165353,-0.197442 0.50625,-0.556454 0.75727,-0.798417 0.251047,-0.241989 0.651213,-0.586655 0.889808,-0.765621 0.238588,-0.17932 0.616483,-0.437537 0.839563,-0.574203 0.223114,-0.136659 0.602136,-0.34656 0.842618,-0.466231 0.240102,-0.119671 0.631957,-0.295595 0.870524,-0.390347 0.238969,-0.09513 0.639134,-0.231792 0.889808,-0.3039 0.250294,-0.07211 0.65801,-0.173276 0.906035,-0.225001 0.247653,-0.05172 0.611955,-0.114388 0.809009,-0.13968 0.197442,-0.02529 0.571181,-0.05851 0.830532,-0.07362 0.259732,-0.0151 0.692767,-0.02001 0.962663,-0.01057 z m 75.957863,2.621487 c 0.0416,-0.003 0.3643,0.01132 0.71728,0.03133 0.35297,0.02038 0.83732,0.06342 1.07591,0.09589 0.23897,0.03247 0.65499,0.107972 0.92492,0.167994 0.26992,0.06002 0.6946,0.171016 0.94378,0.246519 0.24916,0.0755 0.66556,0.223487 0.92491,0.328437 0.25973,0.104951 0.638,0.274079 0.84072,0.375247 0.20272,0.101176 0.55117,0.292574 0.77391,0.424704 0.22273,0.132511 0.54098,0.337876 0.70709,0.456413 0.16611,0.118917 0.46283,0.345806 0.65952,0.504362 0.19668,0.158557 0.54702,0.47831 0.77879,0.710828 0.23142,0.232172 0.5591,0.593832 0.72787,0.803373 0.16875,0.209521 0.42282,0.554947 0.56514,0.766708 0.14232,0.212162 0.35109,0.5557 0.46396,0.763313 0.1125,0.207633 0.2839,0.556081 0.38016,0.773905 0.0963,0.218205 0.2284,0.549284 0.2937,0.736154 0.0649,0.18687 0.16724,0.534937 0.22727,0.773905 0.06,0.238588 0.13478,0.587036 0.16648,0.773905 0.0314,0.18687 0.077,0.568914 0.10118,0.849408 0.0257,0.295216 0.0348,0.732012 0.0211,1.038166 -0.0128,0.290686 -0.0416,0.67273 -0.0634,0.849408 -0.0223,0.176298 -0.0834,0.533049 -0.13629,0.792781 -0.0528,0.259351 -0.17743,0.718025 -0.27672,1.01929 -0.0993,0.300878 -0.26538,0.735407 -0.36958,0.96531 -0.10382,0.229904 -0.26954,0.559856 -0.36808,0.733506 -0.0985,0.173657 -0.25595,0.435649 -0.34995,0.582506 -0.0944,0.146851 -0.29371,0.428099 -0.44321,0.625541 -0.14912,0.197061 -0.43338,0.536825 -0.6312,0.755029 -0.19782,0.217825 -0.48473,0.508138 -0.638,0.644797 -0.1529,0.136659 -0.42244,0.365055 -0.59912,0.507377 -0.17629,0.142322 -0.54362,0.405448 -0.8158,0.584394 -0.27256,0.178566 -0.73126,0.445848 -1.01928,0.593832 -0.28842,0.147611 -0.71124,0.344672 -0.93965,0.437537 -0.2284,0.09287 -0.61044,0.231418 -0.84866,0.308055 -0.23859,0.07626 -0.638,0.18725 -0.88716,0.246138 -0.24953,0.05889 -0.61497,0.133264 -0.8124,0.165353 -0.19707,0.03209 -0.53683,0.0789 -0.75503,0.103816 -0.21783,0.02529 -0.77846,0.0453 -1.2458,0.04455 -0.55533,-3.77e-4 -1.02567,-0.02265 -1.35906,-0.06342 -0.28011,-0.03436 -0.6859,-0.09665 -0.90148,-0.138173 -0.21518,-0.04153 -0.55495,-0.11703 -0.75503,-0.167995 -0.1997,-0.05096 -0.55834,-0.158936 -0.79733,-0.239721 -0.23859,-0.08079 -0.58704,-0.210275 -0.77391,-0.287665 -0.18687,-0.07777 -0.55306,-0.24954 -0.81355,-0.382044 -0.26049,-0.13213 -0.64291,-0.346179 -0.84941,-0.474915 -0.2065,-0.128735 -0.53041,-0.348447 -0.71993,-0.488128 -0.18914,-0.1393 -0.52437,-0.409223 -0.74484,-0.599868 -0.22085,-0.190264 -0.55306,-0.510398 -0.7388,-0.711642 -0.18612,-0.200837 -0.45227,-0.509645 -0.59195,-0.686316 -0.13968,-0.176679 -0.38846,-0.524746 -0.5523,-0.773906 -0.16422,-0.249159 -0.42319,-0.70784 -0.57571,-1.019289 -0.15252,-0.31145 -0.34468,-0.753129 -0.42773,-0.981539 -0.0831,-0.228396 -0.20989,-0.6531 -0.28238,-0.943786 -0.0725,-0.290687 -0.16271,-0.732352 -0.20084,-0.981539 -0.0517,-0.34127 -0.0687,-0.671976 -0.0687,-1.340177 0,-0.668201 0.017,-0.99892 0.0687,-1.340177 0.0382,-0.24916 0.12723,-0.686724 0.19858,-0.972508 0.0717,-0.285404 0.18725,-0.676132 0.25709,-0.868284 0.0698,-0.191779 0.18875,-0.49341 0.26463,-0.669708 0.0759,-0.176679 0.22387,-0.482465 0.32957,-0.679527 0.10533,-0.197441 0.31862,-0.551552 0.47378,-0.787485 0.15478,-0.235566 0.393,-0.567025 0.5289,-0.736153 0.13591,-0.169128 0.37941,-0.452638 0.54098,-0.63045 0.16158,-0.177812 0.46888,-0.477936 0.68292,-0.667447 0.21443,-0.189511 0.53418,-0.454152 0.71049,-0.588923 0.17668,-0.134398 0.52247,-0.37336 0.76861,-0.530408 0.24651,-0.157423 0.67952,-0.403561 0.96266,-0.546643 0.28313,-0.143456 0.71239,-0.338256 0.95356,-0.433388 0.24124,-0.09476 0.66594,-0.24161 0.94379,-0.325417 0.27785,-0.08419 0.75163,-0.20235 1.05249,-0.262372 0.30126,-0.0604 0.709,-0.130623 0.90604,-0.155915 0.19744,-0.02529 0.57948,-0.05814 0.84941,-0.07286 0.26992,-0.01472 0.52474,-0.02907 0.56627,-0.03209 z M 75.318974,73.690771 c 1.515694,0.0068 3.214511,0.02982 3.775147,0.05097 0.560609,0.02114 1.410045,0.05625 1.887574,0.07814 0.477556,0.02152 1.326937,0.06456 1.887573,0.09589 0.56061,0.03095 1.537626,0.09022 2.17071,0.13175 0.633471,0.04153 1.712056,0.118163 2.397218,0.169882 0.685162,0.05172 1.653528,0.128355 2.151834,0.169881 0.49832,0.04191 1.577279,0.135525 2.397219,0.208014 0.820347,0.07248 3.538453,0.32617 6.040235,0.56363 2.502186,0.237454 5.126666,0.483973 5.832606,0.547777 0.70594,0.0638 1.52139,0.140061 1.81207,0.169501 0.29068,0.02982 0.91092,0.07966 1.37793,0.111367 0.46736,0.03171 1.30806,0.07475 1.86869,0.09551 0.56061,0.02076 2.05556,0.05436 3.32213,0.07475 1.26658,0.02076 2.65958,0.04681 3.09562,0.05851 0.43603,0.0117 1.20051,0.03813 1.69882,0.05889 0.49832,0.02076 1.27146,0.06304 1.71769,0.09438 0.44622,0.03133 1.14314,0.0906 1.54781,0.131749 0.40508,0.04115 1.09289,0.126468 1.52894,0.189138 0.43603,0.06267 1.09859,0.173657 1.4723,0.246892 0.37374,0.07323 0.98535,0.20914 1.35906,0.302392 0.37374,0.09324 0.9264,0.251427 1.22841,0.351842 0.30164,0.100422 0.735,0.265768 0.96267,0.367697 0.22764,0.101549 0.5557,0.269169 0.72895,0.372232 0.17328,0.103063 0.44547,0.29182 0.60441,0.419041 0.15931,0.127222 0.38959,0.356752 0.5119,0.509645 0.1227,0.152894 0.29484,0.431121 0.38281,0.617991 0.088,0.186869 0.18611,0.45868 0.2182,0.604023 0.0321,0.145343 0.0695,0.40847 0.083,0.585148 0.0136,0.176678 0.006,0.488882 -0.0174,0.69426 -0.0234,0.205366 -0.0687,0.502095 -0.10118,0.659144 -0.0329,0.157422 -0.11703,0.48624 -0.18725,0.731265 -0.0706,0.244631 -0.22386,0.687063 -0.34052,0.982692 -0.11703,0.295969 -0.29899,0.716124 -0.40507,0.934349 -0.1057,0.217825 -0.31107,0.574576 -0.45603,0.792781 -0.16876,0.253689 -0.40735,0.540227 -0.66254,0.795022 -0.25143,0.251427 -0.53909,0.491903 -0.77846,0.650459 -0.20914,0.138547 -0.50964,0.31145 -0.6682,0.384685 -0.15855,0.07323 -0.42319,0.183094 -0.58816,0.243877 -0.16535,0.06116 -0.5104,0.161951 -0.76671,0.225002 -0.25633,0.06267 -0.70403,0.14761 -0.99478,0.189137 -0.29068,0.04153 -0.75767,0.09287 -1.03816,0.114388 -0.2805,0.02152 -1.12121,0.05587 -1.8687,0.07664 -0.74749,0.02076 -2.14049,0.05663 -3.09562,0.08003 -1.03891,0.02567 -2.59351,0.03284 -3.86953,0.01812 -1.17294,-0.01321 -2.76984,-0.04077 -3.54863,-0.06078 -0.77846,-0.02001 -1.89138,-0.05361 -2.47273,-0.07475 -0.58137,-0.02114 -1.62596,-0.0638 -2.32171,-0.09513 -0.69542,-0.03133 -1.88459,-0.0906 -2.6426,-0.13175 -0.75768,-0.04153 -1.92153,-0.109099 -2.58598,-0.151006 -0.664425,-0.04153 -1.921522,-0.126087 -2.793608,-0.188004 -0.872087,-0.06191 -1.89966,-0.137792 -2.283965,-0.168747 -0.383931,-0.03133 -1.131389,-0.09174 -1.661064,-0.134398 -0.529275,-0.04266 -1.659164,-0.137039 -2.510473,-0.209521 -0.852124,-0.07129 -2.194474,-0.190115 -2.983453,-0.262088 -0.788978,-0.07265 -2.147624,-0.199621 -3.020118,-0.283815 -0.871814,-0.08351 -2.51088,-0.244434 -3.642745,-0.357824 -1.13139,-0.113254 -2.558817,-0.257463 -3.171124,-0.320887 -0.612327,-0.06342 -1.665614,-0.172903 -2.340591,-0.243497 -0.674617,-0.07059 -1.898166,-0.198195 -2.718106,-0.283517 -0.907529,-0.09476 -1.661065,-0.192912 -1.925325,-0.251427 -0.238588,-0.05285 -0.662919,-0.172523 -0.942633,-0.265768 -0.27936,-0.09324 -0.704037,-0.254068 -0.943786,-0.356751 -0.239342,-0.102683 -0.707094,-0.326931 -1.03932,-0.4987 -0.332213,-0.171769 -0.827138,-0.45113 -1.100089,-0.620631 -0.272944,-0.169502 -0.70139,-0.457927 -0.952817,-0.641022 -0.251047,-0.183094 -0.645931,-0.49341 -0.877315,-0.689371 -0.231037,-0.196308 -0.604023,-0.547777 -0.828631,-0.781442 -0.224621,-0.233679 -0.54098,-0.601383 -0.702951,-0.817292 -0.162332,-0.215938 -0.377135,-0.530789 -0.477556,-0.699896 -0.100795,-0.169128 -0.251048,-0.463963 -0.334481,-0.654988 -0.08305,-0.191399 -0.193666,-0.509265 -0.245385,-0.706347 -0.06456,-0.245765 -0.100795,-0.504362 -0.114388,-0.821502 -0.01283,-0.287291 -0.0026,-0.573068 0.02643,-0.753128 0.02567,-0.15969 0.08947,-0.418288 0.141948,-0.57533 0.05247,-0.156668 0.146097,-0.386952 0.208014,-0.511532 0.06191,-0.12458 0.20235,-0.362414 0.312203,-0.528521 0.110233,-0.166106 0.316359,-0.433008 0.4583,-0.593078 0.142322,-0.160444 0.366943,-0.38884 0.499073,-0.507757 l 0.240476,-0.215937 0.439051,-0.04719 c 0.241609,-0.02567 0.863734,-0.08192 1.382817,-0.12458 0.519083,-0.04266 1.062677,-0.08683 1.208047,-0.09777 0.145343,-0.01094 0.680681,-0.04417 1.189172,-0.07362 0.508511,-0.02982 1.442839,-0.07248 2.076331,-0.09513 0.633471,-0.02265 1.346967,-0.04681 1.585561,-0.05323 0.238969,-0.0068 1.674305,-0.0068 3.19,0 z M 62.143982,54.288144 c -0.24916,-0.0094 -0.512286,-0.0098 -0.585148,-0.0012 -0.07248,0.0087 -0.293328,0.04303 -0.490769,0.07664 -0.197062,0.0336 -0.50549,0.108725 -0.685162,0.16724 -0.17932,0.05851 -0.467365,0.177052 -0.639888,0.26388 -0.172903,0.08683 -0.425838,0.231418 -0.562497,0.321641 -0.137039,0.09022 -0.379782,0.275586 -0.539846,0.412245 -0.160443,0.136659 -0.386572,0.362414 -0.503228,0.502095 -0.116276,0.1393 -0.295969,0.380536 -0.399032,0.536451 -0.103063,0.155535 -0.246138,0.405075 -0.317866,0.554193 -0.07173,0.149118 -0.172903,0.395256 -0.225375,0.547396 -0.05247,0.15176 -0.128735,0.429233 -0.169881,0.616103 -0.04115,0.18687 -0.08456,0.560609 -0.09702,0.830532 -0.01661,0.363922 -0.006,0.602516 0.04115,0.922263 0.03511,0.237081 0.115522,0.592318 0.178566,0.789386 0.06304,0.196688 0.173276,0.486241 0.244631,0.643283 0.07173,0.157049 0.243497,0.455659 0.38167,0.664045 0.154781,0.232552 0.397898,0.524366 0.63083,0.756184 0.208386,0.207633 0.508511,0.466231 0.666313,0.574576 0.158176,0.107972 0.438671,0.272191 0.622899,0.364302 0.184602,0.09211 0.459061,0.211408 0.610067,0.265014 0.150626,0.05361 0.440938,0.131376 0.644416,0.172903 0.203858,0.04153 0.539093,0.08645 0.745184,0.09966 0.213676,0.01359 0.550038,0.0049 0.783751,-0.02038 0.225001,-0.02416 0.568159,-0.0857 0.762226,-0.135905 0.19404,-0.05058 0.507004,-0.158176 0.695415,-0.239342 0.188004,-0.08117 0.457547,-0.216317 0.599115,-0.300124 0.141187,-0.08419 0.357885,-0.228777 0.481711,-0.321641 0.123446,-0.09287 0.365436,-0.31145 0.537205,-0.485107 0.171769,-0.173657 0.411491,-0.454525 0.532676,-0.624033 0.121185,-0.169501 0.297856,-0.466231 0.392995,-0.659517 0.09513,-0.193286 0.217825,-0.486614 0.272565,-0.651966 0.05474,-0.165353 0.132884,-0.47114 0.173657,-0.679527 0.0521,-0.266528 0.07399,-0.536071 0.07399,-0.907529 0,-0.315978 -0.02416,-0.66518 -0.0604,-0.868284 -0.03327,-0.188078 -0.09506,-0.458314 -0.137834,-0.601579 -0.0421,-0.143265 -0.142586,-0.411464 -0.222027,-0.594789 -0.07944,-0.184005 -0.256656,-0.504485 -0.393132,-0.712254 -0.136475,-0.208448 -0.397205,-0.533681 -0.578493,-0.722438 -0.181588,-0.188377 -0.461322,-0.441312 -0.621766,-0.562117 -0.160444,-0.121185 -0.437163,-0.29937 -0.615349,-0.39639 -0.178185,-0.09702 -0.483972,-0.233679 -0.679526,-0.303519 -0.195554,-0.06984 -0.521724,-0.160824 -0.724815,-0.202351 -0.203104,-0.04115 -0.573069,-0.08267 -0.822249,-0.09174 z m 76.209088,2.963491 c -0.14081,0.0026 -0.39224,0.02001 -0.55834,0.03889 -0.16611,0.0185 -0.47643,0.0755 -0.68971,0.126468 -0.2133,0.05134 -0.53608,0.154027 -0.71728,0.228776 -0.18121,0.07475 -0.44849,0.201217 -0.59383,0.281249 -0.14535,0.07966 -0.39149,0.234059 -0.5474,0.342784 -0.15554,0.108726 -0.46208,0.377515 -0.68068,0.597227 -0.23142,0.232552 -0.49719,0.54815 -0.63573,0.756184 -0.131,0.195928 -0.3024,0.484726 -0.38129,0.641775 -0.0789,0.156669 -0.19631,0.434896 -0.26087,0.617617 -0.0646,0.183095 -0.15478,0.50587 -0.20046,0.717278 -0.0687,0.31938 -0.0827,0.503228 -0.0823,1.083114 6.7e-4,0.570428 0.0155,0.765622 0.0812,1.063831 0.0441,0.201217 0.12495,0.49832 0.17932,0.660651 0.0544,0.162331 0.1729,0.447735 0.26351,0.634978 0.0902,0.18687 0.24878,0.466985 0.35184,0.6229 0.10344,0.155534 0.3005,0.414886 0.43829,0.57609 0.13779,0.160824 0.39941,0.416773 0.58175,0.56854 0.18196,0.151759 0.45755,0.354483 0.61196,0.450749 0.1544,0.09627 0.44244,0.251048 0.6395,0.344293 0.19745,0.09324 0.51116,0.214049 0.698,0.267655 0.1865,0.05399 0.50097,0.12458 0.6984,0.156668 0.19782,0.03247 0.58817,0.05851 0.86903,0.05851 0.30427,0 0.66216,-0.02567 0.88716,-0.06342 0.20725,-0.03511 0.53871,-0.114761 0.73575,-0.177051 0.19744,-0.06267 0.51342,-0.18725 0.70254,-0.277474 0.18913,-0.09022 0.49983,-0.268789 0.69087,-0.39639 0.19102,-0.127601 0.5002,-0.377895 0.68747,-0.556081 0.18762,-0.178185 0.46359,-0.486994 0.61346,-0.686316 0.15025,-0.199329 0.36996,-0.551925 0.48851,-0.78375 0.11853,-0.231418 0.26426,-0.570801 0.3239,-0.753876 0.06,-0.182714 0.14006,-0.477175 0.17857,-0.65348 0.0544,-0.249914 0.0698,-0.483599 0.0702,-1.057042 6.8e-4,-0.570047 -0.0147,-0.808669 -0.068,-1.057041 -0.0373,-0.176678 -0.11891,-0.473781 -0.1812,-0.66065 -0.0619,-0.18687 -0.17932,-0.478691 -0.26124,-0.648192 -0.0819,-0.169501 -0.25445,-0.466611 -0.38356,-0.660651 -0.12949,-0.193666 -0.39714,-0.519836 -0.59497,-0.724475 -0.19819,-0.204992 -0.50209,-0.479063 -0.67537,-0.609306 -0.17365,-0.130623 -0.48133,-0.323909 -0.68367,-0.429613 -0.20272,-0.106084 -0.48359,-0.235947 -0.62478,-0.289179 -0.14119,-0.05323 -0.41942,-0.137413 -0.61875,-0.18687 -0.19933,-0.04983 -0.52738,-0.108725 -0.72895,-0.130623 -0.20159,-0.0219 -0.48209,-0.03737 -0.6229,-0.03473 z M 87.607893,98.189576 c -1.795843,-0.0079 -3.749482,-3.78e-4 -4.341419,0.01699 -0.591565,0.01737 -1.466672,0.05058 -1.944201,0.07399 -0.477556,0.0234 -1.301272,0.07588 -1.830947,0.11665 -0.529654,0.04077 -1.191819,0.100041 -1.472307,0.13213 -0.280115,0.03171 -0.817292,0.108345 -1.193721,0.169881 -0.37638,0.06192 -0.903047,0.17215 -1.170295,0.245385 -0.267282,0.07324 -0.61082,0.1948 -0.762974,0.269923 -0.183475,0.0906 -0.323909,0.192533 -0.415266,0.302392 -0.07626,0.09098 -0.224241,0.314845 -0.328818,0.497943 -0.10495,0.18271 -0.279361,0.54023 -0.387706,0.79393 -0.107972,0.25369 -0.308055,0.78674 -0.44396,1.18503 -0.136286,0.39828 -0.339764,1.04231 -0.452264,1.43116 -0.112501,0.38885 -0.305787,1.11069 -0.429613,1.60444 -0.123827,0.49341 -0.31183,1.2881 -0.418288,1.76563 -0.106084,0.47756 -0.292954,1.36924 -0.415266,1.98195 -0.122312,0.61233 -0.324663,1.69957 -0.449996,2.4161 -0.124961,0.71612 -0.3039,1.79509 -0.397145,2.39722 -0.09287,0.60213 -0.228396,1.52778 -0.301258,2.05745 -0.07248,0.52928 -0.182714,1.37039 -0.245004,1.8687 -0.06267,0.49832 -0.164599,1.37304 -0.227263,1.9442 -0.06229,0.5708 -0.155914,1.50517 -0.207633,2.07633 -0.05172,0.5708 -0.120424,1.3949 -0.152513,1.83095 -0.03247,0.43603 -0.08532,1.22577 -0.11741,1.75544 -0.03247,0.52965 -0.06833,1.80569 -0.08003,2.8355 -0.01397,1.253 -0.006,2.1405 0.02454,2.68036 0.02529,0.44433 0.07739,1.08759 0.116276,1.43041 0.03889,0.34241 0.115142,0.85016 0.169501,1.12766 0.05399,0.27785 0.150253,0.65989 0.213296,0.8494 0.06304,0.18952 0.16686,0.44358 0.231038,0.56439 0.0638,0.12118 0.177051,0.27068 0.251047,0.33259 0.074,0.0619 0.25633,0.17139 0.405075,0.2435 0.148364,0.0721 0.496812,0.20575 0.773905,0.29672 0.277093,0.0914 0.78409,0.23406 1.126908,0.31711 0.342405,0.0834 0.928306,0.21179 1.302019,0.28579 0.373739,0.074 0.98534,0.18498 1.359053,0.24689 0.373739,0.0623 1.027573,0.16422 1.453432,0.22689 0.425838,0.0627 1.241249,0.1729 1.81207,0.24538 0.571181,0.0725 1.420569,0.17441 1.887574,0.22613 0.467364,0.0521 1.367744,0.14573 2.000828,0.20802 0.633471,0.0623 1.746005,0.16383 2.472721,0.22612 0.726716,0.0619 1.779955,0.14686 2.340592,0.18876 0.560609,0.0416 1.537625,0.10948 2.170709,0.15101 0.633471,0.0416 1.610073,0.10117 2.17071,0.13251 0.560609,0.0317 1.545909,0.0831 2.189585,0.11438 0.643663,0.0314 1.832848,0.0819 2.642603,0.1125 0.809756,0.0306 2.202826,0.0766 3.095621,0.10231 0.892791,0.0253 3.169221,0.0464 5.058691,0.0464 2.01971,0 3.93335,-0.0193 4.64343,-0.0464 0.66443,-0.0253 1.53953,-0.0627 1.94421,-0.0834 0.40507,-0.0208 1.10158,-0.0634 1.54781,-0.0948 0.44622,-0.0317 1.08345,-0.0827 1.41568,-0.11363 0.33221,-0.031 0.88451,-0.0902 1.22692,-0.13175 0.3424,-0.0416 0.937,-0.1276 1.3213,-0.19065 0.38431,-0.0634 0.95438,-0.18045 1.26732,-0.26048 0.31297,-0.0797 0.72747,-0.20613 0.92111,-0.28125 0.19367,-0.0747 0.45038,-0.19555 0.57005,-0.26803 0.11967,-0.0729 0.26728,-0.18876 0.32806,-0.25785 0.0608,-0.0695 0.19782,-0.27899 0.30503,-0.46586 0.10684,-0.18724 0.27294,-0.51681 0.36846,-0.73235 0.0959,-0.21555 0.24613,-0.58779 0.33372,-0.82639 0.088,-0.23897 0.22122,-0.638 0.29635,-0.88716 0.0747,-0.24916 0.18763,-0.65801 0.25029,-0.90827 0.0627,-0.25067 0.16422,-0.69236 0.22575,-0.98154 0.0619,-0.28955 0.17215,-0.89171 0.24539,-1.33794 0.0732,-0.4466 0.17592,-1.16011 0.22802,-1.58556 0.0521,-0.42584 0.1208,-1.05439 0.15213,-1.3968 0.0313,-0.34279 0.0823,-0.99662 0.11326,-1.45344 0.031,-0.45679 0.0744,-1.26352 0.0963,-1.79319 0.0215,-0.52966 0.0392,-1.88004 0.0389,-3.00124 0,-1.12121 -0.0177,-2.49724 -0.0389,-3.05787 -0.0211,-0.56061 -0.0559,-1.3338 -0.077,-1.71769 -0.0215,-0.38432 -0.0555,-0.95323 -0.0763,-1.26468 -0.0204,-0.31145 -0.0717,-0.98269 -0.11402,-1.49118 -0.0419,-0.50889 -0.11891,-1.32429 -0.17025,-1.81207 -0.0517,-0.48813 -0.13666,-1.22693 -0.18876,-1.64219 -0.0525,-0.41527 -0.14648,-1.10349 -0.20877,-1.52894 -0.0627,-0.42583 -0.16383,-1.06648 -0.22537,-1.42396 -0.0612,-0.3575 -0.18007,-0.98609 -0.26389,-1.3968 -0.0838,-0.41074 -0.23783,-1.08461 -0.34278,-1.49757 -0.10457,-0.413 -0.2635,-0.9759 -0.35297,-1.25109 -0.0895,-0.27484 -0.24237,-0.68822 -0.33939,-0.91853 -0.0974,-0.22991 -0.24236,-0.52021 -0.32278,-0.64442 -0.0804,-0.1242 -0.21593,-0.27634 -0.30087,-0.33825 -0.0853,-0.0615 -0.2771,-0.16271 -0.4266,-0.225 -0.14949,-0.0623 -0.46736,-0.17215 -0.70634,-0.24463 -0.23896,-0.0725 -0.70934,-0.19329 -1.04537,-0.26804 -0.33598,-0.0751 -0.9302,-0.19479 -1.32089,-0.26576 -0.39073,-0.0714 -1.10083,-0.18951 -1.57836,-0.263133 -0.47756,-0.07362 -1.41154,-0.201971 -2.07518,-0.285404 -0.66405,-0.08343 -1.75959,-0.211028 -2.43497,-0.283136 -0.67538,-0.07248 -1.77996,-0.182341 -2.455,-0.244251 -0.67462,-0.06192 -1.64294,-0.146477 -2.15183,-0.188004 -0.50852,-0.04189 -1.40061,-0.109479 -1.98196,-0.151005 -0.58137,-0.04115 -1.31186,-0.09211 -1.62331,-0.113635 -0.31145,-0.02112 -1.14388,-0.07248 -1.849819,-0.114008 -0.705939,-0.04115 -1.988335,-0.108726 -2.850236,-0.149499 -0.861494,-0.04115 -2.076331,-0.09249 -2.69923,-0.114762 -0.6229,-0.02227 -1.650473,-0.05776 -2.283964,-0.07852 -0.633091,-0.02076 -2.62074,-0.04417 -4.416923,-0.05247 z M 76.86434,139.1669 h -1.714433 l -0.07437,0.0744 c -0.04077,0.0407 -0.115142,0.15516 -0.165353,0.25482 -0.05021,0.0993 -0.142321,0.34165 -0.205365,0.53909 -0.06267,0.19706 -0.158176,0.55646 -0.212162,0.79808 -0.05399,0.24161 -0.140061,0.66103 -0.191025,0.9317 -0.05096,0.27106 -0.15214,0.88865 -0.225002,1.37263 -0.07248,0.48435 -0.183094,1.2881 -0.245764,1.78641 -0.06229,0.49832 -0.172523,1.45798 -0.245005,2.13295 -0.07211,0.67462 -0.174037,1.67696 -0.226509,2.22734 -0.05247,0.55004 -0.155161,1.7052 -0.228396,2.5671 -0.07286,0.8615 -0.192533,2.39043 -0.266148,3.39763 -0.07361,1.0068 -0.134771,2.00083 -0.135905,2.20847 -0.0015,0.23632 0.02114,0.46925 0.0604,0.62289 0.03436,0.13478 0.121185,0.36469 0.192913,0.51078 0.07135,0.1461 0.199702,0.34996 0.284643,0.45302 0.08494,0.10306 0.250294,0.26917 0.367697,0.36921 0.117029,0.0997 0.331833,0.23972 0.477176,0.31107 0.145343,0.071 0.374873,0.15931 0.509645,0.19593 0.219712,0.0597 0.454525,0.0665 2.246212,0.0665 h 2.000828 l 0.245385,-0.0695 c 0.135151,-0.0382 0.375247,-0.13666 0.533803,-0.21896 0.158556,-0.0823 0.391108,-0.24274 0.517195,-0.35675 0.125714,-0.11401 0.308808,-0.32768 0.406582,-0.47491 0.09815,-0.14723 0.230664,-0.41414 0.294462,-0.59308 l 0.116275,-0.32542 -0.0053,-0.54739 c -0.003,-0.30126 -0.04983,-1.15068 -0.10457,-1.88758 -0.05436,-0.7369 -0.141568,-1.87549 -0.19404,-2.52935 -0.0521,-0.65423 -0.162331,-1.93136 -0.244631,-2.83889 -0.08267,-0.90719 -0.201216,-2.13031 -0.263506,-2.71811 -0.06229,-0.58742 -0.155915,-1.4334 -0.208387,-1.88004 -0.05247,-0.4466 -0.172149,-1.34622 -0.265768,-1.99933 -0.09363,-0.6531 -0.228776,-1.49757 -0.300504,-1.87664 -0.07211,-0.37903 -0.189511,-0.91887 -0.261619,-1.20011 -0.07211,-0.28124 -0.184602,-0.63988 -0.249914,-0.79692 -0.06568,-0.15705 -0.160823,-0.33523 -0.212161,-0.39639 l -0.09234,-0.10864 z m 32.54503,0 h -1.7105 l -0.10306,0.12231 c -0.0566,0.0676 -0.13552,0.19819 -0.17516,0.29069 -0.0397,0.0925 -0.11326,0.29634 -0.16385,0.45339 -0.0502,0.15667 -0.13477,0.46963 -0.188,0.69576 -0.0528,0.22575 -0.15478,0.72977 -0.22651,1.12005 -0.0714,0.38997 -0.19744,1.18197 -0.27974,1.75999 -0.0827,0.57798 -0.20159,1.49234 -0.26464,2.0322 -0.0627,0.53984 -0.14836,1.30433 -0.19026,1.69881 -0.0419,0.39451 -0.12647,1.2439 -0.18801,1.88758 -0.0615,0.64366 -0.16308,1.78185 -0.22575,2.52935 -0.0627,0.74749 -0.14798,1.80908 -0.19026,2.35946 -0.0419,0.55004 -0.11024,1.4844 -0.15176,2.07559 -0.0419,0.59118 -0.0759,1.19596 -0.0759,1.34357 0,0.14761 0.0336,0.39941 0.0744,0.55948 0.0411,0.16007 0.13666,0.4096 0.21292,0.55457 0.0763,0.14496 0.24765,0.38129 0.38091,0.5255 0.13364,0.14421 0.36469,0.33749 0.51418,0.42998 0.14912,0.0925 0.37525,0.20311 0.50285,0.24577 0.1276,0.0426 0.35071,0.0959 0.49605,0.11816 0.17328,0.0272 0.90604,0.0366 2.12767,0.0276 1.63349,-0.0121 1.89137,-0.0219 2.08991,-0.0797 0.12458,-0.0363 0.35411,-0.12835 0.50964,-0.20461 0.2133,-0.10457 0.36317,-0.21859 0.60629,-0.46057 0.22915,-0.22839 0.36392,-0.40092 0.46359,-0.59383 0.077,-0.1495 0.17365,-0.40281 0.21481,-0.56288 0.0426,-0.16761 0.0744,-0.41602 0.0744,-0.5859 0,-0.16233 -0.0513,-1.01325 -0.11363,-1.89097 -0.0627,-0.87813 -0.16497,-2.22469 -0.22764,-2.99296 -0.0623,-0.76827 -0.15591,-1.86414 -0.20763,-2.43497 -0.0517,-0.57118 -0.14534,-1.53952 -0.20801,-2.15183 -0.0627,-0.61271 -0.15629,-1.48738 -0.20802,-1.9442 -0.0517,-0.45679 -0.14571,-1.22129 -0.20876,-1.69882 -0.0627,-0.47755 -0.16422,-1.19107 -0.225,-1.58556 -0.0612,-0.3945 -0.16308,-0.98079 -0.22689,-1.30242 -0.0638,-0.32203 -0.16686,-0.78824 -0.22915,-1.03627 -0.0623,-0.24841 -0.16497,-0.58553 -0.22801,-0.74899 -0.063,-0.16346 -0.16574,-0.35562 -0.22803,-0.42659 l -0.11325,-0.12873 z"
     id="icon" /></svg>